<mxfile host="app.diagrams.net" modified="2024-04-03T08:43:58.388Z" agent="Mozilla/5.0 (Windows NT 10.0; Win64; x64) AppleWebKit/537.36 (KHTML, like Gecko) Chrome/123.0.0.0 Safari/537.36 Edg/123.0.0.0" etag="tcOnQv_HwKvKcaLSdLIu" version="24.2.1" type="github">
  <diagram name="Page-1" id="dEFFyXbwY_3E-IPIZJg_">
    <mxGraphModel dx="2008" dy="1795" grid="1" gridSize="10" guides="1" tooltips="1" connect="1" arrows="1" fold="1" page="1" pageScale="1" pageWidth="850" pageHeight="1100" math="0" shadow="0">
      <root>
        <mxCell id="0" />
        <mxCell id="1" parent="0" />
        <mxCell id="Gz4Njnf0Q3PMrMddDzjn-1" value="&lt;span class=&quot;SCXW54719331 BCX8&quot; style=&quot;-webkit-user-drag: none; -webkit-tap-highlight-color: transparent; margin: 0px; padding: 0px; user-select: text; color: rgb(0, 0, 0); font-family: &amp;quot;Segoe UI&amp;quot;, &amp;quot;Segoe UI Web&amp;quot;, Arial, Verdana, sans-serif; font-size: 12px; font-style: normal; font-variant-ligatures: normal; font-variant-caps: normal; font-weight: 400; letter-spacing: normal; orphans: 2; text-align: left; text-indent: 0px; text-transform: none; widows: 2; word-spacing: 0px; -webkit-text-stroke-width: 0px; white-space: pre-wrap; background-color: rgb(255, 255, 255); text-decoration-thickness: initial; text-decoration-style: initial; text-decoration-color: initial; display: inline-block;&quot;&gt;&lt;span class=&quot;WACImageContainer NoPadding DragDrop BlobObject SCXW54719331 BCX8&quot; role=&quot;presentation&quot; style=&quot;-webkit-user-drag: none; -webkit-tap-highlight-color: transparent; margin: 0px; padding: 0px; user-select: text; position: relative; cursor: move; left: 0px; top: 2px; display: inline-block; text-indent: 0px; width: 576px; height: 288px; transform: rotate(0deg);&quot;&gt;&lt;img class=&quot;WACImage SCXW54719331 BCX8&quot; src=&quot;data:image/png;base64,iVBORw0KGgoAAAANSUhEUgAAA+gAAAH0CAYAAACuKActAAAAAXNSR0IArs4c6QAAAARnQU1BAACxjwv8YQUAAAAJcEhZcwAAD2EAAA9hAag/p2kAAEW/SURBVHhe7d0HmFTV3Qfgg6CgUbBFwIjYYu+994A1osbE2Luxt6gxsZvEaCxJFDWxGzVqjF2DXWPDgr2EWPATRcQGKAoozLf/s3dwWYayusBd9n2f5zhz77ncmZ25u85vTmtTqZMAAACA6Wqm4hYAAACYjgR0AAAAKAEBHQAAAEpAQAcAAIASENABAACgBAR0AAAAKAEBHQAAAEpAQAcAAIASENABAACgBAR0AAAAKAEBHQAAAEpAQAcAAIASENABAACgBAR0AAAAKAEBHQAAAEpAQAcAAIASENABAACgBAR0AAAAKAEBHQAAAEpAQAcAAIASENABAACgBAR0AAAAKAEBHQAAAEpAQAcAAIASENABAACgBAR0AAAAKAEBHQAAAEpAQAcAAIASENABAACgBAR0AAAAKAEBHQAAAEpAQAcAAIASENABAACgBAR0AAAAKAEBHQAAAEpAQAcAAIASENABAACgBAR0AErl7bffTm3atElXXHFFsYfpYaGFFkpbbbVVsdV08R6efPLJxVZ5bbjhhmnZZZcttppP458/rufYF9f31LbHHnvk96+q+jt11llnFXumrvi54/EAaDoBHaCkLrjgAiG1Cb7L61UNTxMr11xzTXFkbY8//ngOJUOHDi32fCMCYK1zbrbZZsUREzdo0KB83ueff77Y07xeffXVfP5pERqnp6n9Ok4tX3zxRX7eDz30ULGnPMr83ABaMgEdoKQE9Kb5Lq/X+uuvn/7+979PUFZeeeXUtm3btMkmmxRH1hYB/ZRTTqkZ0MMCCywwwbmPOeaYonbiIljGeadmQI/zt4aAPjVfxymx6667pi+//DJ179692DN5EYLjeTc1BF988cWpf//+xdbUManndvzxx+efFYCmE9ABaPUWWWSRtMsuu4xXtt9++/T666+njTfeOHXp0qU48tvp1KnTBOeP8za3CE2UU3zR06FDh9x7YmoZMWJEvp155plT+/bt8/3poV27dvlnBaDpBHSAZvLcc8+lzTffPHXs2DHNPvvsudW1b9++RW296BJa6wN6tYt1tSUzxo++8sor6eGHHx7XJTq6Sk/Kddddl1ZZZZU0xxxz5Oew3HLLpT//+c9Fbb1o4T388MNTt27d8gf4xRZbLJ1xxhlp7NixxRH1YvtPf/pTWmaZZfIH7c6dO6f9998/ffrpp8UR9arjlB999NG0+uqr52Mj7F511VXFEZMWzyfGy0aAnXPOOdPuu+9esxV68ODBac8998wt0fG8u3btmrbZZpspfr3inEcccUQ+Lv59nGe33XZLH330UXHEhG6//fb02WefpZ133rnYU1u8p0cffXS+v/DCC497/Mat0l9//XX6/PPPi63Ji5bJ1VZbLd+Pn7163movgerY6X79+uUeALPNNlv69a9/neviuHhejcXPH693iPPssMMO+f5GG2007vyNW0S/7Xtby3vvvZf22muvfD3F+xDX12WXXVbU1ovHj+dxww03pN/97nf5vYrHjt+nN954ozjqG717987Pa9ZZZ83P85FHHsmvTfX9n9zrWBW9CeJ1iNfxBz/4QTrzzDOLmkkbNWpUvra+//3v59+9H//4x+ndd98tar/R+Hc8PPPMM6lnz55p3nnnzc8/rp94fUIcF+cM0VJdfd7V9zXex/g78+abb6YtttgiP3b1Wm08Br2hc889N7fix+NtsMEG6eWXXy5q6jV87RpqeM7JPbdaf+fi+j/ttNPSoosumt/7OFdcr/H6NRT7v8vfFICWTkAHaAYRDtdbb730wgsv5K7LJ5xwQhowYED+oPvkk08WR025CMcRTJZccslxXaJ/85vfFLUTuvfee9PPf/7zNNdcc+XA/Yc//CE/9mOPPVYcUd+6Gh/Ir7766hxO//KXv6R11lknHXfccenII48sjqoXYTxCZ9RHyI9gE+OwI0x89dVXxVH1IjT95Cc/ST/60Y/S2WefnZ9DfJiP12RSKpVKDtnxs0WL8m9/+9scbCKkNxat2TfffHN+HtGV/dBDD83h+Z133sn1k3q9IhTHe3PeeeelHj165J/nF7/4Rfrvf/9bM0hVxc8bIWa77bYr9tQW9fHahwg/1cevBpjwv//9L33ve9/LISpa4+P6aPw6NrbUUkulU089Nd/fb7/9xp03wnjVxx9/nL8UWnHFFfNrEAFzSsV54nUMEZSq54/Hrfq2720tH3zwQVpzzTXTfffdlw4++OD8PsQXRHvvvXd+7o3FNRzv+S9/+ct8jcaXXY2/LLnwwgvzueK9j0Ad73OvXr3Ge1+n5HWML55iToAVVlgh/5xxHR177LHp3//+d3HExO2zzz75+ce1Fc85Wq+33HLLonbihgwZkv9NhN1f/epX+fqMn6/6pV5cP/HzhW233Xbc8254PUbojd/J+eabL08AF78nkxIhN37vDzrooPyaRjiPnhzx3jTFlDy3xuJ1OvHEE/Owkfg9ib9Fp59+etpxxx2LI77RnNcdQItT9wEJgO+oLhRUZplllsqbb75Z7KlUBg0aVKkLZJW6IFDsqVROOumkSq0/vZdffnneXxfqiz2VyjLLLFOp+xBbbE3aYYcdVunYsWOl7gN7sWdCp512WqUuJFbqwmKxp15dOKi0bdu2Uhd28/YjjzySn0tdQM3bVX369Jlgf/fu3fO+//znP8WeSqUueFTat29fOeqoo4o9td1yyy3539YFq2JPJT//upCV98drEurCU97+4x//mLcnZmKvV10oyP/+pptuKvZ8Y+zYscW98dUF3/x+/vSnPy32TFo8t3iMhu9f1V577VU5+eSTK//6178qdQGp8uMf/zgfOyXnfvrpp8d7LRqKnzXqLrroomLPN2J/XGuNxfu1++67F1uVyj//+c987IMPPljs+cZ3eW9D4+dQF8QrXbt2rXz00UfFnnp1Aa3SqVOnyhdffJG347nEv60L1pVRo0blfaEu0Of9L730Ut6Ounnmmaey2mqrVb766qu8L1xxxRX5uIbXwpS8jvHeVMW5u3TpUqkLvMWe2p5//vn8bw888MBiT72ddtop72/48zf+Hb/55pvzdjy3ifnwww8nOE9VvI9RF7+/jUVdvH9V8Zhx7Kyzzlp59913i72VypNPPpn3H3HEEcWe+tej1u9R43NO6rnFvqirqr5OdSG92FPvl7/8Zd7/wAMPFHu++3UH0NJpQQf4jsaMGZPuueee3HIXXTGroht23Qf13FVz+PDhxd6pI7qHx/jTaEmfmLowllsYozUqunZXy6abbpp/hroPxOOOiy7n0XrV8LjoPh9dausCVD6uaumll87nrYrWtSWWWCK99dZbxZ7a7rrrrjxW9YADDij21I/TPeSQQ4qtetGKXReWc1flxl3sp0RdMM4to9HS11jjbrhVN954Yxo9evRku7dPiUsvvTTVBZbcuhgThd16661p3333zV24Gw+BaKroKhy9CqaWb/veNlb3eSO/D1tvvXW+3/C6ihbgYcOGpWeffbY4ul78XPG+V1WfR/Wxo3t49CCI1zKuo6p4z+Iab4q4rqMXR1U8bnSvnpJrOFR7IlTFMJLJid/ZcMcdd0y2N8WkNPz9mZz4GxXd96viZ1xjjTXG/RxTS/X8jXvq1AXufHvnnXfm26rmuu4AWiIBHeA7+vDDD3P38fgA2Vh0r43x3AMHDiz2TB0HHnhgWnzxxXN35+juG+NY+/TpU9TWiwnPYl982G1YIqCH6HIb4rgITNFttvGx0V28elzVggsuWNz7RgSkyYXp//u//8tfYkQ4aqjx6xghNLrtR3fjGLu8/vrr5+7MMS59SsQY3aaucx3d2+eee+78ek4N1WAS3b2/iwhbDUNsc/u2721j8TsS8wD87W9/m+Caqn7BMLnrqhq6q48d10+IbvINRVif2PjriYnfmcZf1kzpNTzTTDPlcdUN1fpb0NgGG2yQu6THGO4Ygx7DPS6//PIJxmRPSvys8dyn1A9/+MPi3jfi70bj+RKaW/V1avxexXCP+KKi+l5WNdd1B9ASCegA09DEWmyjBfu7iDAdS0jddttteZKqaOWOcNlwPHd8URCt4tHKXqtUx6/GcXG+WsdEqY7nrYpW71qipbS5RItkjOOOMasxaVSM4Y4vP2JivuYW49pjorGYQC3GE08NMUlf+OSTT/LttxW9C5qiqddZc723cU2FaKWudU1FifkOGpoW11XVtHysqvhbED01nnjiiTyOvjqBXvRUmdLJBOPLqwi+zWlq/Y0KEzt3Y9Pj/QAoCwEd4DuKVsCY+bnWusMxEVl8gK4GsmorYOOZyhu3IIUp/TBbFS2p0YU4JlGLVuOY6C0mharOfB2tfPHBP1rMa5Vqq1UcF12HIzDVOi66izeH7t27p/fff3+CMDKx9ZvjeUXLcwwniMmtogt6TCBVNbHXK/5d45mqJ+Uf//hHDgJN6d7e1Peq2lU3rp1Jaep5q+I6a3yNxesVr3dD3/b8TRU/Z0yQFyGv1jUVJb4Uaoq4fkLjmd1j4rTGLcJT6+eM5xBfPsTvW0NNWYM8Js6L2eqjy3703IiJ0GJFhtDczzt6xzQWX3w17HFQ69oJjf9GNeW5VV+nxo8fk9PFY1XfSwAEdIDvLFp7YjbmGFvcMBjEh89rr702rbvuunnZs1DtClsd7x1i7PiVV15ZbH0jZv2u9UE5xqtG8G8YtiJQNxRfCiy//PL5frXL7E9/+tPcWnf33Xfn7YbicSLYhDguglQsidRYHFPrOU1OreccS0PF+aqzQYd43JjNuqEYPjBy5Mhiq168jhH4GnYHntjrFT0DYnb9mBG8sVotcvGexZcV8b7VEuOm42dpuOZ4PHZo/Pgx90DjLsvxmDFjfYjx15MysfNOTrw+Da+xEN3LG7eCftvzN1X8jsT7EOPQa31ZEl3gm2rVVVdN88wzT7r44ovHXbshQm7jrtBT6+esDoGImdEbqjUrfWPxHBtffzEbf6heM/HFX2iu533LLbfklvqqp556Kq8y0XAoR1w7cX03fE/i96fhihChKc8tftdD49flnHPOybdTMus9QGshoAM0gwhcMR40Qt3vf//7PEZ67bXXzh+0G66nHEE+wl8sLRX7owU4Jmqq1ZIaXV1ffPHFfO5oUXvggQfy/viAHd27Y5mkqljCKMa0xnjWmJQsljOKZcbiA38cG2LZtFjiKNYYjom1Lrroovz4sXxRjGOtftCO80Tre3Qnjw/W8aE61pqObubR0vVtxk3Xes7R2h+t9LHEVCz7FI8Rr0+Mf28oWvhirHVMhhXhPQJ9LIkVX4A0XKJpYq9X/Nwx6VR0WY9ltv7617/mn22ttdbKxzcU4TH2xeR+E2shPP/88/PPEuGmKh47xGsey03F48cXLzHxWbROxuRY0bMhXu+Y/Or666/PzyXej0mJsBRjdOO9ivc1zhvL901OXA/R/T9CcfzbeO0iDMVY54bi+ojwHGP840uiOH/jseDNJZYgizkHYlKyuJbiC4PYF18ITcmY7caix0ist/3000/npcLifYkl2aKXRbxuDd+/b/s6Tk68frHEXry30X0/buM1n5IeG/F6x88dy7nFaxHXRkwkGF/mVQNtDGGIazeulzh3PO+m9AZpLMaAx9+o+NsTX8BFMI8vOWJpyKroZh9fqMWXR/E7GRMcxu9lrFnfUFOeW/S6ieE28XP+7Gc/y8fH3514HjFxXVOWBwSY4VUAaBZ1YaxS96G2Mvvss1dmm222St2Hzsrjjz9e1H6jX79+lbqQkpfxqgvrlbrgVHOZtcGDB1e23HLLvFRb1FWXPqoumRTLHlXdeOONlboP0ZX55ptv3HnrQnbl/fffL46o99lnn1XqQnKl7oN6Pq4usFXWXnvtyllnnVUZPXp0cVS9ug/TlbrgmZdmiuew3HLLVeo+yOfl46rqAnt+jo3Fc60+31DrOYdYzmzXXXfNS8TFUltxvy5Y5mOrS2J99NFHlboAX1lyySXzMnFxXLx+N9xwQ66vmtjrFeJxDj744Epd0M8/9wILLJCfS5y7oViyKv5tXUgv9kyouoRU46XJYhm7OP9MM82U6+Nnfuuttyo77LBDpS6kVzp06JCvi3hNY2m0sRNZ4q2xW2+9tVIXhCrt2rUb73WJny+WlqtlzJgxlbrgl9/feMy4Lt944438fjV+Dy6++OLKIosskpfaa/hzTel7OzFxrsZLcH3wwQf5vezWrVtl5plnzkuZbbLJJvlaq6ousxZLwDVUvYaqP3/VX/7yl/xcYxmu1VdfvfLYY4/l13izzTYrjqjX1NcxXqc47+R8+eWXlUMPPTQv+RbX59Zbb10ZOHDgBD9/49/x+HtRF+7z72o89/jd3WqrrSrPPPNMrq+KvyHx88R12/Cc8fzi8Wpp/Nyrr10sB3j22Wfn1z8ec7311qu88MILxVHfuPrqq/M1EY+54oorVu6+++6ar8fEnlv1d6ShWArvlFNOqSy88ML5vY/nEH+LRo4cWRxR77tedwAtXZv4T90fUQCAFi/GOkePlGiNju7vANCS6OIOALRIMTdB43aGmBgxZsffcMMNiz0A0HJoQQcAWqSHHnooHXHEEXl+gRhLHWP+Y4x5zBHQr1+/qbpGPABMDQI6ANAixaoJhx56aJ6wL1rN55577jzBWkw+19Rl2wCgDAR0AAAAKAFj0AEAAKAEBHQAAAAoAV3cW5lYfmbQoEFpjjnmSG3atCn2AgAArU1Ewc8++yzNP//8aaaZtN2WgYDeyrz77rupW7duxRYAANDaDRw4MC2wwALFFtOTgN7KDBs2LM0555z5l7Bjx47FXgAAoLUZPnx4brwbOnRo6tSpU7GX6UlAb2XilzB++SKoC+gAANB6yQblY6ABAAAAlICADgAAACUgoAMAAEAJCOgAAABQAgI6AAAAlICADgAAACUgoAMAAEAJCOgAAABQAgI6AAAAlICADgAAACUgoAMAAEAJCOgAAABQAgI6AAAAlICADgAAACUgoAMAAEAJtKnUKe7TCgwfPjx16tQpDRs2LHXs2LHYW05tTmlT3Btf5SSXLAAAfFctKRu0FlrQAQAAoAQEdAAAACgBAZ0WKbq/1yoAAAAtlYAOAAAAJSCgAwAAQAkI6MxwanV9jwIAAFBmAjoAAACUgIAOAAAAJSCg06rU6voeBQAAYHoT0AEAAKAEBHQAAAAoAQEdAAAASkBABwAAgBIQ0KEBE8gBAADTi4AOAAAAJSCgAwAAQAkI6DCFdH8HAACmJgEdAAAASkBABwAAgBIQ0KEZ6P4OAAB8VwI6AAAAlICADlOZ1nUAAGBKCOgAAABQAgI6AAAAlICADtOR7u8AAECVgA4AAAAlIKADAABACQjoUFK6vwMAQOsioAMAAEAJCOgAAABQAgI6tEC1ur9HAQAAWi4BHQAAAEpAQAcAAIASENABAACgBAR0mMHUGpseBQAAKDcBHQAAAEpAQG8Gp59+elpttdXSHHPMkeabb77Uq1ev1L9//6K23oYbbpjatGkzXvnFL35R1NZ755130pZbbplmm222fJ6jjz46ff3110VtvYceeiitvPLKqX379mmxxRZLV1xxRVEDk1erZT0KAAAw/QnozeDhhx9OBx10UOrbt2+6995701dffZV69OiRRowYURxRb999903vv//+uHLmmWcWNSmNGTMmh/PRo0enxx9/PF155ZU5fJ944onFESkNGDAgH7PRRhul559/Ph1++OFpn332SXfffXdxBAAAAC2VgN4M+vTpk/bYY4+0zDLLpBVWWCEH62gN79evX3FEvWgZ79Kly7jSsWPHoiale+65J7366qvp6quvTiuuuGLafPPN02mnnZZ69+6dQ3u46KKL0sILL5zOPvvstNRSS6WDDz44/eQnP0nnnnturgcAAKDlEtCngmHDhuXbueeeO99WXXPNNWneeedNyy67bDruuOPSF198UdSk9MQTT6Tlllsude7cudiTUs+ePdPw4cPTK6+8krfjmE033TTfr4pjYj98V7W6vkcBAACmDQG9mY0dOzZ3PV9nnXVyEK/aaaedcuv4gw8+mMP53//+97TLLrsUtSkNHjx4vHAeqttRV72tdUyE+C+//LLYM75Ro0bl+oYFAACA8hHQm1mMRX/55ZfTddddV+ypt99+++XW7mgl33nnndNVV12Vbr755vTmm28WR0wdMYFdp06dxpVu3boVNQAAAJSJgN6MYkz4HXfckVvJF1hggWJvbWussUa+feONN/JtjEn/4IMP8v2q6nbUVW9rHRNj2WedddZiz/iitT663FfLwIEDixqYcrW6vkcBAACaj4DeDCqVSg7n0SL+wAMP5IncJidmYQ9du3bNt2uttVZ66aWX0pAhQ/J2iBnhI3wvvfTSeTuOuf/++/P9qjgm9k9MLMcW52hYAAAAKB8BvRlEt/YYX37ttdfmtdBjrHiU6rjw6MYeM7LHrO5vv/12uu2229Juu+2W1l9//bT88svnY2JZtgjiu+66a3rhhRfy0mnHH398PneE7BDrpr/11lvpmGOOSf/973/TBRdckG644YZ0xBFH5HoAAABaLgG9GVx44YW5+/iGG26YW8Sr5frrr8/1s8wyS7rvvvtyCF9yySXTUUcdlbbffvt0++235/rQtm3b3D0+bqNFPCaQixB/6qmnFkek3DJ/55135lbzWM4tllu75JJL8th2mF5qdX2PAgAANI2A3gyii3utEmujh5iY7eGHH04ff/xxGjlyZHr99dfTmWeeOUF38+7du6e77rorL7/24YcfprPOOiu1a9euqK0XXwI899xzeXb2aJmvPgYAAAAtm4AOAAAAJSCgA1NNra7vUQAAgAkJ6AAAAFACAjoAAACUgIAOAAAAJSCgAwAAQAkI6MB0UWvyuCgAANBaCegAAABQAgI6AAAAlICADpROra7vUQAAYEYmoAMAAEAJCOgAAABQAgI60KLU6voeBQAAWjoBHQAAAEpAQAcAAIASENCBGUatru9RAACgJRDQAQAAoAQEdAAAACgBAR1oNXR/BwCgzAR0AAAAKAEBHQAAAEpAQAcAAIASENAB6hifDgDA9CagAwAAQAkI6AAAAFACAjrAZOj+DgDAtCCgAwAAQAkI6AAAAFACAjoAAACUgIAO8B0Ynw4AQHMR0AEAAKAEBHQAAAAoAQEdYCrR/R0AgKYQ0AEAAKAEBHQAAAAoAQEdAAAASkBABwAAgBIQ0AGmAxPIAQDQmIAOAAAAJSCgAwAAQAkI6AAlU6v7exQAAGZsAjoAAACUgIAOAAAAJSCgAwAAQAkI6AAtSK2x6VEAAGj5BHQAAAAoAQEdAAAASkBABwAAgBIQ0AFmELXGpkcBAKBlENABAACgBAR0AAAAKAEBHQAAAEpAQAdoBWqNTY8CAEB5COgAAABQAgJ6Mzj99NPTaqutluaYY44033zzpV69eqX+/fsXtfVGjhyZDjrooDTPPPOk2WefPW2//fbpgw8+KGrrvfPOO2nLLbdMs802Wz7P0Ucfnb7++uuitt5DDz2UVl555dS+ffu02GKLpSuuuKKoAQAAoCUT0JvBww8/nMN3375907333pu++uqr1KNHjzRixIjiiJSOOOKIdPvtt6d//vOf+fhBgwal7bbbrqhNacyYMTmcjx49Oj3++OPpyiuvzOH7xBNPLI5IacCAAfmYjTbaKD3//PPp8MMPT/vss0+6++67iyMAmq5W1/coAABMWwJ6M+jTp0/aY4890jLLLJNWWGGFHKyjNbxfv365ftiwYenSSy9N55xzTtp4443TKquski6//PIcxCPUh3vuuSe9+uqr6eqrr04rrrhi2nzzzdNpp52WevfunUN7uOiii9LCCy+czj777LTUUkulgw8+OP3kJz9J5557bq4HAACg5RLQp4II5GHuuefOtxHUo1V90003zdthySWXTAsuuGB64okn8nbcLrfccqlz5855O/Ts2TMNHz48vfLKK3k7jml4jhDHVM8BAABAyyWgN7OxY8fmrufrrLNOWnbZZfO+wYMHp1lmmSXNOeecebsqwnjUhbhtGM5DdXtyx0SI//LLL4s94xs1alSub1gAplStru9RAABofgJ6M4ux6C+//HK67rrrij3TV0xg16lTp3GlW7duRQ0AAABlIqA3oxgTfscdd6QHH3wwLbDAAsXelLp06ZLHkQ8dOrTYUy9mcY+6ELeNZ3Wvbk/umI4dO6ZZZ5212DO+4447Lne5r5aBAwcWNQAAAJSJgN4MKpVKDuc333xzeuCBB/JEbg3FpHAzzzxzuv/++4s9KS/DFhPJrbXWWnk7bl966aU0ZMiQvB1iRvgI30svvXTejmManiPEMdVz1BLLscU5GhaA5lCr63sUAAC+HQG9GUS39ph9/dprr81rocdY8SjVceHRtXzvvfdORx55ZG5dj0nj9txzzxys11xzzXxMLMsWQXzXXXdNL7zwQl467fjjj8/njpAdfvGLX6S33norHXPMMem///1vuuCCC9INN9yQl3ADAACgZRPQm8GFF16Yu49vuOGGqWvXruPK9ddfXxyR8lJoW221Vdp+++3T+uuvn7ur33TTTUVtSm3bts3d4+M2gvsuu+ySdtttt3TqqacWR6TcMn/nnXfmVvNYzi2WW7vkkkvyTO4AAAC0bAJ6M4gu7rVKrI1e1aFDh7ym+SeffJJGjBiRw3l1bHlV9+7d01133ZW++OKL9OGHH6azzjortWvXrqitF18CPPfcc3l29jfffHO8xwAAAKDlEtABaHa1xqZHAQBg4gR0AAAAKAEBHQAAAEpAQAdgmqrV9T0KAEBrJ6ADAABACQjoAAAAUAICOgAAAJSAgA5AadQamx4FAKA1ENABAACgBAR0AAAAKAEBHQAAAEpAQAegRag1Nj0KAMCMQkAHAACAEhDQAQAAoAQEdAAAACgBAR0AAABKQEAHYIZgAjkAoKUT0AEAAKAEBHQAAAAoAQEdgBme7u8AQEsgoAMAAEAJCOgAAABQAgI6AK2a7u8AQFkI6AAAAFACAjoAAACUgIAOAAAAJSCgA8BEGJ8OAExLAjoAAACUgIAOAN+C1nUAoLkJ6AAAAFACAjoAAACUgIAOAM1M93cA4NsQ0AEAAKAEBHQAAAAoAQEdAKahWt3fowAACOgAAABQAgI6AJRErZb1KABA6yCgAwAAQAkI6AAAAFACAjoAAACUgIAOAC1ArbHpUQCAGYeADgAAACUgoAMAAEAJtOqAvsgii6SPP/642PrG0KFDcx0AAABMK606oL/99ttpzJgxxdY3Ro0ald57771iCwDKrdbY9CgAQMvSKgP6bbfdlku4++67x21Hufnmm9Npp52WFlpooVwPAAAA00KrDOi9evXKpU2bNmn33Xcftx1lxx13TPfee286++yzi6MBoOWq1bIeBQAon1YZ0MeOHZvLggsumIYMGTJuO0p0b+/fv3/aaqutiqMBAABg6mvVY9AHDBiQ5p133mILAAAApp9WHdDD/fffn37961+nffbZJ+21117jFQAAAJhWWnVAP+WUU1KPHj1ySP/oo4/Sp59+Ol4BgBlZrbHpUQCA6aNVB/SLLrooXXHFFenJJ59Mt9xyS57BvWEBAACAaaVVB/TRo0entddeu9gCAACA6adVB/QYd37ttdcWWwBAVa2u71EAgKmnVQf0kSNHpnPOOSdtsMEG6ZBDDklHHnnkeKUp/vOf/6Stt946zT///Hl99egy39Aee+yR9zcsm222WVFb75NPPkk777xz6tixY5pzzjnT3nvvnT7//POitt6LL76Y1ltvvdShQ4fUrVu3dOaZZxY1AAAAtGStOqBH2F1xxRXTTDPNlF5++eX03HPPjSvPP/98cdSUGTFiRFphhRVS7969iz0TikD+/vvvjyv/+Mc/ipp6Ec5feeWVdO+996Y77rgjh/799tuvqE1p+PDheVK77t27p379+qU//vGP6eSTT05/+9vfiiMAAABoqVp1QH/wwQcnWh544IHiqCmz+eabp9/+9rdp2223LfZMqH379qlLly7jylxzzVXUpPTaa6+lPn36pEsuuSStscYaad11103nnXdeuu6669KgQYPyMddcc00eN3/ZZZelZZZZJu24447p0EMPzb0AAGBaqdX1PQoA8N206oA+rT300ENpvvnmS0sssUQ64IAD0scff1zUpPTEE0/kbu2rrrpqsSelTTfdNLfuxyzzIY5Zf/310yyzzJK3Q8+ePVP//v0tCwcAANDCteqAvtFGG6WNN954oqU5Rff2q666Kq+5fsYZZ6SHH344t7qPGTMm1w8ePDiH94batWuX5p577lwX4rZz5875flV1u3pMY6NGjcpd4xsWAJhaarWsRwEAJq9VB/QYfx7jxqtl6aWXzl3In3322bTccssVRzWP6I7+4x//OJ+3V69eeYz5008/nVvVp6bTTz89derUaVyJieUAAAAon1Yd0M8999zxyvnnn58effTRdPjhh6eZZ565OGrqWGSRRdK8886b3njjjbwdY9KHDBmS71d9/fXXeWb3qAtx+8EHH+T7VdXt6jGNHXfccWnYsGHjysCBA4saAJi2arWsRwEA6hmDXsMuu+ySJ2Kbmt599908Br1r1655e6211kpDhw7Ns7NXxUR1Y8eOzZPGhTgmZnb/6quv8naIGd9jTHvDCecaionpYtm2hgUAAIDyEdBriMnYYp3xpoj1ymNpturybAMGDMj333nnnVx39NFHp759+6a33347j0PfZptt0mKLLZYneQtLLbVUHqe+7777pqeeeio99thj6eCDD85d42Nt9bDTTjvlCeJiffRYju36669Pf/7zn5u8ZjsAAADl06oD+nbbbTdeiSXS1lxzzbTnnnum/fffvzhqyjzzzDNppZVWyiVEaI77J554Ymrbtm1ecz3GoC+++OI5YK+yyirpkUceyS3cVbGM2pJLLpk22WSTtMUWW+Sl1hqucR5jyO+5554c/uPfH3XUUfn8DddKB4CWSvd3AFq7Vh3QG06eFiVmTN9www3TXXfdlU466aTiqCkT/65SqUxQrrjiijTrrLOmu+++O48xj0noohU9gnfjGdnj8a+99tr02Wef5fHi0c1+9tlnL2rrLb/88jnYjxw5MneTP/bYY4saAAAAWrJWHdAvv/zy8cqll16a/vCHP6QePXoURwAAAMC0YQx6nZiY7eqrr87lueeeK/YCAGWh+zsArUGrDujR5XzjjTdOq622Wjr00ENzibHdMQb8ww8/LI4CAMpMeAdgRtGqA/ohhxySx3vHjOix3niUl19+OQ0fPjyHdQAAAJhWWnVA79OnT7rgggvyEmdVSy+9dOrdu3f697//XewBAACAqa9VB/SxY8emmWeeudj6RuyLOgCgZdP9HYCWpFUH9Bh/fthhh6VBgwYVe1J677330hFHHJHHoQMAAMC00qoD+vnnn5/Hmy+00EJp0UUXzWXhhRfO+84777ziKAAAAJj6WnVA79atW3r22WfTnXfemQ4//PBc7rrrrrxvgQUWKI4CAGZEur8DUDatMqA/8MADeTK4aClv06ZN+tGPfpRndI8SS64ts8wy6ZFHHimOBgAAgKmvVQb0P/3pT2nfffdNHTt2LPZ8o1OnTmn//fdP55xzTrEHAAAApr5WGdBfeOGFtNlmmxVbE+rRo0fq169fsQUAtDa6vwMwPbTKgP7BBx/UXF6tql27dunDDz8stgAAAGDqa5UB/Qc/+EF6+eWXi60Jvfjii6lr167FFgDAN2q1rkcBgO+qVQb0LbbYIp1wwglp5MiRxZ5vfPnll+mkk05KW221VbEHAAAApr5WGdCPP/749Mknn6TFF188nXnmmenWW2/N5YwzzkhLLLFErvvNb35THA0AAABTX6sM6J07d06PP/54WnbZZdNxxx2Xtt1221x+/etf532PPvpoPgYAoClqdX2PAgBTolUG9NC9e/d01113pY8++ig9+eSTqW/fvvl+7Ft44YWLowAAAGDaaLUBvWquueZKq622Wlp99dXzfQCAqaFWy3oUAKhq9QEdAAAAykBABwAAgBIQ0AEAprNaXd+jANC6COgAAABQAgI6AECJ1WpZjwLAjEdABwAAgBIQ0AEAAKAEBHQAgBaqVtf3KAC0TAI6AAAAlICADgAwA6rVsh4FgPIS0AEAAKAEBHQAAAAoAQEdAKCVqdX1PQoA05eADgAAACUgoAMAME6tlvUoAEx9AjoAAACUgIAOAMAUqdWyHgWA5iGgAwAAQAkI6AAAAFACAjoAAN9Zra7vUQCYcgI6AAAAlICADgDAVKd1HWDyBHQAAAAoAQEdAAAASkBABwBgutL9HaCegA4AAAAlIKADAFBaWteB1kRABwAAgBIQ0AEAaJG0rgMzGgEdAAAASkBABwAAgBIQ0AEAmOHo/g60RAI6AAAAlICADgBAq6J1HSgrAR0AAABKQEBvJv/5z3/S1ltvneaff/7Upk2bdMsttxQ19SqVSjrxxBNT165d06yzzpo23XTT9Prrrxe19T755JO08847p44dO6Y555wz7b333unzzz8vauu9+OKLab311ksdOnRI3bp1S2eeeWZRAwDAd1WrdT0KwLQgoDeTESNGpBVWWCH17t272DO+CNJ/+ctf0kUXXZSefPLJ9L3vfS/17NkzjRw5sjgi5XD+yiuvpHvvvTfdcccdOfTvt99+RW1Kw4cPTz169Ejdu3dP/fr1S3/84x/TySefnP72t78VRwAAANBSCejNZPPNN0+//e1v07bbblvs+Ua0nv/pT39Kxx9/fNpmm23S8ssvn6666qo0aNCgcS3tr732WurTp0+65JJL0hprrJHWXXfddN5556XrrrsuHxeuueaaNHr06HTZZZelZZZZJu24447p0EMPTeecc06uBwBg6qnVsh4FoLkI6NPAgAED0uDBg3O39qpOnTrlIP7EE0/k7biNbu2rrrpq3g5x/EwzzZRb3EMcs/7666dZZpklb4dohe/fv3/69NNPiz0AAAC0RAL6NBDhPHTu3DnfVsV2tS5u55tvvny/ql27dmnuuece75ha5wjVYxobNWpU7hrfsAAA0LxqtaxHAWgKAX0Gd/rpp+fW+mqJieUAAAAoHwF9GujSpUu+/eCDD/JtVWxX6+J2yJAh+X7V119/nWd2b3hMrXOE6jGNHXfccWnYsGHjysCBA4saAACmhVot61EAGhPQp4GFF144B+j777+/2FM/I3uMLV9rrbXydtwOHTo0z85e9cADD6SxY8fmseohjomZ3b/66qu8HWLG9yWWWCLNNddcxZ7xtW/fPi/b1rAAAABQPgJ6M4n1yp9//vlcQkwMF/ffeeedvC764Ycfnmd5v+2229JLL72Udtttt7xmeq9evfLxSy21VNpss83Svvvum5566qn02GOPpYMPPjjP1B7HhZ122ilPEBfro8dybNdff33685//nI488shcDwBAy1KrZT0K0DoJ6M3kmWeeSSuttFIuIUJz3D/xxBPz9jHHHJMOOeSQvK75aqutlgN9LKvWoUOHXB9iGbUll1wybbLJJmmLLbbIS601XOM8xpDfc889Ofyvssoq6aijjsrnb7hWOgAAM4ZawT0KMOMS0JvJhhtumNc7b1yuuOKKXB+t6KeeemqebX3kyJHpvvvuS4svvniuq4oZ26+99tr02Wef5fHisd757LPPXtTWizXUH3nkkXyOd999Nx177LFFDQAAAC2ZgA4AAC1MrZb1KEDLJqADAMAMpFZwjwKUn4AOAAAAJSCgAwBAK1GrZT0KUA4COgAAAJSAgA4AANRsWY8CTDsCOgAAMEm1gnsUoHkJ6AAAAFACAjoAAPCdaF2H5iGgAwAAU43wDlNOQAcAAIASENABAACgBAR0AABgutD9HcYnoAMAAKUjvNMaCegAAECLIrwzoxLQAQAAoAQEdAAAACgBAR0AAJhh6P5OSyagAwAArUKt8B4FykJABwAAgBIQ0AEAgFavVst6FJiWBHQAAIBJqBXco0BzE9ABAACgBAR0AACAb6lWy3oU+DYEdAAAgKmgVnCPAhMjoAMAAEAJCOgAAABQAgI6AAAAlICADgAAACUgoAMAAEAJCOgAAABQAgI6AAAAlICADgAAACUgoAMAAEAJCOgAAABQAgI6AAAAlICADgAAACUgoAMAAEAJCOgAAABQAgI6AAAAlICADgAAACUgoAMAAEAJCOgAAABQAgI6AAAAlICADgAAACUgoAMAAEAJCOgAAABQAgI6AAAAlICADgAAACUgoAMAAEAJCOgAAABQAgI6AAAAlICADgAAACUgoAMAAEAJCOjTyMknn5zatGkzXllyySWL2pRGjhyZDjrooDTPPPOk2WefPW2//fbpgw8+KGrrvfPOO2nLLbdMs802W5pvvvnS0Ucfnb7++uuiFgAAgJZMQJ+GlllmmfT++++PK48++mhRk9IRRxyRbr/99vTPf/4zPfzww2nQoEFpu+22K2pTGjNmTA7no0ePTo8//ni68sor0xVXXJFOPPHE4ggAAABaMgF9GmrXrl3q0qXLuDLvvPPm/cOGDUuXXnppOuecc9LGG2+cVllllXT55ZfnIN63b998zD333JNeffXVdPXVV6cVV1wxbb755um0005LvXv3zqEdAACAlk1An4Zef/31NP/886dFFlkk7bzzzrnLeujXr1/66quv0qabbpq3Q3R/X3DBBdMTTzyRt+N2ueWWS507d87boWfPnmn48OHplVdeKfYAAADQUgno08gaa6yRu6T36dMnXXjhhWnAgAFpvfXWS5999lkaPHhwmmWWWdKcc85ZHF0vwnjUhbhtGM5Ddbt6TC2jRo3KIb5hAQAAoHwE9GkkuqTvsMMOafnll88t33fddVcaOnRouuGGG4ojpo7TTz89derUaVzp1q1bUQMAAECZCOjTSbSWL7744umNN97I49FjHHkE9oZiFveoC3HbeFb36nb1mFqOO+64PMa9WgYOHFjUAAAAUCYC+nTy+eefpzfffDN17do1Two388wzp/vvv7+oTal///55jPpaa62Vt+P2pZdeSkOGDMnb4d57700dO3ZMSy+9dLFnQu3bt8/HNCwAAACUj4A+jfzyl7/My6e9/fbbeXb2bbfdNrVt2zb9/Oc/z13P995773TkkUemBx98ME8at+eee+ZQvuaaa+Z/36NHjxzEd9111/TCCy+ku+++Ox1//PF57fQI4QAAALRsAvo08u677+YwvsQSS6Sf/vSnaZ555slLqH3/+9/P9eeee27aaqut0vbbb5/WX3/93G39pptuynUhwvwdd9yRbyO477LLLmm33XZLp556anEEAAAALZmAPo1cd911adCgQXlW9Qjrsb3ooosWtSl16NAhr2n+ySefpBEjRuRw3nhseffu3fPkcl988UX68MMP01lnnZXXVgcAAKDlE9ABAACgBAR0AAAAKAEBHQAAAEpAQAcAAIASENABAACgBAR0AAAAKAEBHQAAAEpAQAcAAIASENABAACgBAR0AAAAKAEBHQAAAEpAQAcAAIASENABAACgBAR0AAAAKAEBHQAAAEpAQAcAAIASENABAACgBAR0AAAAKAEBHQAAAEpAQAcAAIASENABAACgBAR0AAAAKAEBHQAAAEpAQAcAAIASENABAACgBAR0AAAAKAEBHQAAAEpAQAcAAIASENABAACgBAR0AAAAKAEBHQAAAEpAQAcAAIASENABAACgBAR0AAAAKAEBHQAAAEpAQAcAAIASENABAACgBAR0AAAAKAEBHQAAAEpAQAcAAIASENABAACgBAR0AAAAKAEBHQAAAEpAQAcAAIASENABAACgBAR0AAAAKAEBHQAAAEpAQAcAAIASENABAACgBAR0AAAAKAEBHQAAAEpAQAcAAIASENABAACgBAR0AAAAKAEBvQXq3bt3WmihhVKHDh3SGmuskZ566qmiBgAAgJZKQG9hrr/++nTkkUemk046KT377LNphRVWSD179kxDhgwpjgAAAKAlEtBbmHPOOSftu+++ac8990xLL710uuiii9Jss82WLrvssuIIAAAAWiIBvQUZPXp06tevX9p0002LPXVv4Ewz5e0nnnii2NOytDmlTc0CAADQ2gjoLchHH32UxowZkzp37lzsqRfbgwcPLrbGN2rUqDR8+PBxZdiwYXl/w33Ts6SRdU+mRpkedROrbyl1UdRNvG5i9S2lLoq6iddNrL6l1EVp7XUTq28pdVHUTbxuYvUtpS6KuonXTay+pdRFmR51ZSmhUqnkW6a/NnVvhnejhRg0aFD6wQ9+kB5//PG01lprFXtTOuaYY9LDDz+cnnzyyWLPN04++eR0yimnFFsAAADjGzhwYFpggQWKLaYnAb0FiS7uMd78xhtvTL169Sr2prT77runoUOHpltvvbXY841oQY9SNXbs2PTJJ5+keeaZJ7VpU56u5PHtXbdu3fIfh44dOxZ7YeJcMzSVa4Zvw3VDU7lmaKrpec1EFPzss8/S/PPPn4fOMv0J6C1MLKu2+uqrp/POOy9vR+BecMEF08EHH5x+9atf5X0tUfxh6tSpU+6C739mTAnXDE3lmuHbcN3QVK4Zmso1Q0O+JmlhYom1iy++OF155ZXptddeSwcccEAaMWJEntUdAACAlktAb2F+9rOfpbPOOiudeOKJacUVV0zPP/986tOnzwQTxwEAANCytD05ZhGjRYku7kcccUQ64YQT8proM8qEDm3btk0bbrhhateuXbEHJs01Q1O5Zvg2XDc0lWuGpnLNUGUMOgAAAJSALu4AAABQAgI6AAAAlICADgAAACUgoAMAAEAJCOiUQu/evdNCCy2UOnTokNZYY4301FNPFTW0ZqeffnpabbXV0hxzzJHmm2++1KtXr9S/f/+itt7IkSPTQQcdlOaZZ540++yzp+233z598MEHRS2t3R/+8IfUpk2bdPjhhxd7XDPU9t5776VddtklXxezzjprWm655dIzzzxT1KYUc+rGEqddu3bN9Ztuuml6/fXXi1pamzFjxuTVdBZeeOF8PSy66KLptNNOy9dJlWumdfvPf/6Ttt566zT//PPn/w/dcsstRU29Kbk+Pvnkk7Tzzjunjh07pjnnnDPtvffe6fPPPy9qmVEJ6Ex3119/fTryyCPTSSedlJ599tm0wgorpJ49e6YhQ4YUR9BaPfzwwzlI9e3bN917773pq6++Sj169EgjRowojkh5ycHbb789/fOf/8zHDxo0KG233XZFLa3Z008/nf7617+m5ZdfvthTzzVDY59++mlaZ5110swzz5z+/e9/p1dffTWdffbZaa655iqOSOnMM89Mf/nLX9JFF12UnnzyyfS9730v/78qvvCh9TnjjDPShRdemM4///z02muv5e24Rs4777ziCNdMaxefVeIzbTRC1TIl10eE81deeSV/Brrjjjty6N9vv/2KWmZYFZjOVl999UpdCCu2KpUxY8ZU5p9//srpp59e7IF6Q4YMiaaJSl2oyttDhw6t1H2grtQFrbwd6j4o5WOeeOKJYg+t0WeffVb54Q9/WKn7UFPZYIMNKocddlje75qhlmOPPbay7rrrFlsTGjt2bKVLly6VP/7xj8We+mupffv2lX/84x/FHlqTLbfcsrLXXnsVW/W22267Sl2gyvddMzQU/4+5+eabi60puz5effXV/O+efvrpvB3+/e9/V9q0aVN57733ij3MiLSgM12NHj069evXL3frqZppppnydt2H5WIP1Bs2bFi+nXvuufNtXDvRqt7w+llyySXTggsu6Ppp5aLnRd0H6PGujeCaoZbbbrstrbrqqmmHHXbIw2lWWmmldPHFFxe1KQ0YMCANHjx4vOumU6dOeUiW66Z1WnvttdP999+f/ve//+XtF154IT366KNp8803z9uuGSZlSq6PuI1u7fG3qSqOj8/J0eLOjEtAZ7r66KOP8jiuzp07F3vqxXb84YKqsWPH5nHE0Q112WWXzfviGpllllny/8Aacv20btddd10eLhNzGDTmmqGWt956K3dX/uEPf5juvvvudMABB6RDDz00XXnllbm+em34fxVVv/rVr9KOO+6Yv+CLoRHxpU78Pyq6JAfXDJMyJddH3MYXhg21a9cuN1K4hmZsAjrQIkSL6Msvv5zDF0zMwIED02GHHZauueaaPOkkTIn4AnDllVdOv//973PQijGe++67bx4bCrXccMMN+e/Mtddem78QjC9zzjrrrHFf6gB8WwI609W8886b2rZtO8EMyrHdpUuXYovW7uCDD86Tozz44INpgQUWKPamfI3EMImhQ4cWe+q5flqv6MIeE0xG2IqWhigxEVxMxBP3o3XCNUNjMYvy0ksvXWzVW2qppdI777yT71evDf+vouroo48e14oeM/7vuuuueQLKas8d1wyTMiXXR9w2njD566+/zjO7u4ZmbAI601V0NV1llVXyOK6qaMmI7bXWWqvYQ2tVqVRyOL/55pvTAw88kJezaSiuneha2PD6iWXY4kO166d12mSTTdJLL72Unn/++XElxu9Ft9PqfdcMjcXQmcZLOMbY4u7du+f78bcnPhA3vG6GDx+ex4G6blqnL774Io8FbigaHOIzTHDNMClTcn3EbXyZHF88V8VnobjGYqw6M662J9cp7sN0EWs7xlqi3bp1S+3bt8/344P0pZdemtcopvWKbu3RhfDGG2/M64jG2p9R4kNQhKzowhxLZMUyNyuuuGL+Vnn//ffP11Is20frE39DYsxewxJdUBdZZJG02267uWaoKSYJPOWUU3Ivi2hN79OnT4qPR7GudSzTF2sYx3wp0QU+WtqjF0aMUY+QFstqxb+jdYml1aI7+xJLLJEbG6KH169//eu00047pR/96EeuGfLnlViyMcaLx5KfEapjvfO4FmIelMldH9///vdzYP/HP/6Rh968/fbb+f9XsdzsHnvsUTwKM6T6ydxh+qr7Y1Sp+4BUqfufXF52rW/fvkUNrVn8iapVLr/88uKISuXLL7+sHHjggZW55pqrMttss1W23Xbbyvvvv1/UQmW8ZdaCa4Zabr/99sqyyy6blzlacsklK3/729+Kmnpjx46tnHDCCZXOnTvnYzbZZJNK//79i1pam+HDh+e/K/HZpUOHDpVFFlmk8pvf/KYyatSo4gjXTGv34IMP1vwMs/vuu+f6Kbk+Pv7448rPf/7zyuyzz17p2LFjZc8998zLiDJjaxP/qbtYAAAAgOnIGHQAAAAoAQEdAAAASkBABwAAgBIQ0AEAAKAEBHQAAAAoAQEdAAAASkBABwAAgBIQ0AGg5E4++eS04oorFlvTz4YbbpgOP/zwYmvK7LHHHqlXr17F1vT19ttvpzZt2qTnn3++2AMA5SKgA9BqDB48OB122GFpscUWSx06dEidO3dO66yzTrrwwgvTF198URzV8jz00EM5eA4dOrTY89009/mmhzJ9MQAAU0pAB6BVeOutt9JKK62U7rnnnvT73/8+Pffcc+mJJ55IxxxzTLrjjjvSfffdVxw5oa+++qq417KNHj26uAcAlJGADkCrcOCBB6Z27dqlZ555Jv30pz9NSy21VFpkkUXSNttsk+6888609dZbF0em3Hocreo//vGP0/e+9730u9/9Lu+PfYsuumiaZZZZ0hJLLJH+/ve/5/2hVvfpaIGOfdEiHaot0/fff39addVV02yzzZbWXnvt1L9//1xf9Yc//CG37s8xxxxp7733TiNHjixqJhSPu9FGG+X7c801Vz5/tB6H6JJ+8MEH527p8847b+rZs+dkn+ekzhfGjh2bv9SYe+65U5cuXXL3+6aIf3/66aenhRdeOM0666xphRVWSDfeeGNRO+Wv0W9/+9s033zz5ddon332Sb/61a/GDQOI53TllVemW2+9NZ+r+rNVxZc18TPGuePx44saACgDAR2AGd7HH3+cW84POuigHLhriRDXUIS8bbfdNr300ktpr732SjfffHPuHn/UUUell19+Oe2///5pzz33TA8++GDxL6bcb37zm3T22WfnLwviS4M4f9UNN9yQHzta+aO+a9eu6YILLihqJ9StW7f0r3/9K9+PEPv++++nP//5z3k7RFCNLxQee+yxdNFFFxV7J25Kzhev4ZNPPpnOPPPMdOqpp6Z77723qJ28COdXXXVVfi6vvPJKOuKII9Iuu+ySHn744eKIepN6ja655pr8pckZZ5yR+vXrlxZccMH85UnVL3/5y/wlzGabbZaff5QI+VVx7jgmvqRYfPHF089//vP09ddfF7UAMB1VAGAG17dv30r8L++mm24q9tSbZ555KnVhM5djjjmm2FvJxx5++OHFVr26gFfZd999i616O+ywQ2WLLbbI9wcMGJD/3XPPPZe3w6effpr31YX4vB23sX3ffffl7XDnnXfmfV9++WXeXmuttSoHHnhgvl+1xhprVFZYYYVia0LV88bjNbTBBhtUVlpppWKrXlOeZ63zrbvuusVWvdVWW61y7LHHFlsT2n333SvbbLNNvj9y5MjKbLPNVnn88cfzdtXee+9dqQvJ+f6UvEbxehx00EH5ftU666wz3mvU8HGrqj/7JZdcUuypVF555ZW877XXXiv2AMD0owUdgFbrqaeeyq2oyyyzTBo1alSxt150r26oLsDlCeUaiu3Y31TLL798cS/lFvIwZMiQfBvnqwug+X5VXWgv7jXdKqusUtxrHg2fe4jnX33uk/PGG2/kyfh+9KMfpdlnn31ciRb1N998sziq3qReo2jZX3311fP9qsbbkzKpcwPA9CSgAzDDi1nbowt743HMMQY96mIsdGMT6wo/MTPNVP+/1EpugK83scnlZp555uLeN13rY2z21ND452jK86yl4XMP8fyn9Ll//vnn+TbG/McXI9Xy6quvjjcOPUzN12havv4A0BQCOgAzvHnmmSe32p5//vlpxIgRxd6miUnlYhx3Q7G99NJL5/vf//73822Md66K8NlU8Tgxvruhvn37FvdqizHmYcyYMfl2UqbkeTblfE0Rr1X79u3TO++8k78YaVhi7PuUign6nn766WKrXuPt+Bma+/kDwNQmoAPQKsREazERWHRdv/7663NX8mhRv/rqq9N///vf1LZt2+LI2o4++uh0xRVX5MnIXn/99XTOOeekm266KU82FqIVfs0118wzsMe5Y9Kz448/Ptc1RUxEd9lll6XLL788/e9//0snnXRSnkxtUrp3755bgmO5uA8//HBcS3UtU/I8m3K+pogZ1+P1ionhYrK56Nb+7LPPpvPOOy9vT6lDDjkkXXrppfnfxHsRM7q/+OKL41rDw0ILLZT3xXv80UcfzTBL5QEwYxPQAWgVYnm0WPt80003Tccdd1xeXivCeoTDCI2nnXZacWRtvXr1yrOZn3XWWXnM+l//+tccomMps6oI1vElQIz7jqXNIjg21c9+9rN0wgkn5KXM4jz/93//lw444ICitrYf/OAH6ZRTTslLjcXybLG02qRM7nk29XxNEa9z/Hwxm3v0FoiZ1qPLeyy7NqV23nnn/B7G+7byyiunAQMG5KXgOnToUByR0r777ptb2uM9jl4DjXs/AEAZtYmZ4or7AAAtUgxhiHXZG65NDwAtjRZ0AKBFiZngY4hBdP2P4QkxDOC+++5Lu+++e3EEALRMWtABgBblyy+/TFtvvXUesjBy5MjclT3G0W+33XbFEQDQMgnoAAAAUAK6uAMAAEAJCOgAAABQAgI6AAAAlICADgAAACUgoAMAAEAJCOgAAABQAgI6AAAAlICADgAAACUgoAMAAEAJCOgAAABQAgI6AAAATHcp/T/DmWp/GLt37QAAAABJRU5ErkJggg==&quot; style=&quot;-webkit-user-drag: none; -webkit-tap-highlight-color: transparent; margin: 0px; padding: 0px; user-select: text; border: none; white-space: pre !important; vertical-align: baseline; width: 576px; height: 288px;&quot;&gt;&lt;span class=&quot;WACImageBorder SCXW54719331 BCX8&quot; style=&quot;-webkit-user-drag: none; -webkit-tap-highlight-color: transparent; margin: 0px; padding: 0px; user-select: text; white-space: pre !important; display: block; position: absolute; transform: rotate(0deg); width: 576px; height: 288px; left: -1px; top: -1px;&quot;&gt;&lt;/span&gt;&lt;/span&gt;&lt;/span&gt;&lt;span data-contrast=&quot;auto&quot; lang=&quot;EN-US&quot; class=&quot;TextRun EmptyTextRun SCXW54719331 BCX8&quot; style=&quot;-webkit-user-drag: none; -webkit-tap-highlight-color: transparent; margin: 0px; padding: 0px; user-select: text; font-variant-ligatures: none !important; color: rgb(0, 0, 0); font-style: normal; font-variant-caps: normal; font-weight: 400; letter-spacing: normal; orphans: 2; text-align: left; text-indent: 0px; text-transform: none; widows: 2; word-spacing: 0px; -webkit-text-stroke-width: 0px; white-space: pre-wrap; background-color: rgb(255, 255, 255); text-decoration-thickness: initial; text-decoration-style: initial; text-decoration-color: initial; font-size: 11pt; line-height: 19.55px; font-family: Cambria, Cambria_EmbeddedFont, Cambria_MSFontService, serif;&quot;&gt;&lt;br class=&quot;Apple-interchange-newline&quot;&gt;&#xa;&#xa;&lt;/span&gt;" style="text;whiteSpace=wrap;html=1;fontFamily=Architects Daughter;fontSource=https%3A%2F%2Ffonts.googleapis.com%2Fcss%3Ffamily%3DArchitects%2BDaughter;" vertex="1" parent="1">
          <mxGeometry x="180" y="20.000000000000007" width="520" height="260" as="geometry" />
        </mxCell>
        <mxCell id="Gz4Njnf0Q3PMrMddDzjn-2" value="&lt;span class=&quot;SCXW126708771 BCX8&quot; style=&quot;-webkit-user-drag: none; -webkit-tap-highlight-color: transparent; margin: 0px; padding: 0px; user-select: text; color: rgb(0, 0, 0); font-family: &amp;quot;Segoe UI&amp;quot;, &amp;quot;Segoe UI Web&amp;quot;, Arial, Verdana, sans-serif; font-size: 12px; font-style: normal; font-variant-ligatures: normal; font-variant-caps: normal; font-weight: 400; letter-spacing: normal; orphans: 2; text-align: left; text-indent: 0px; text-transform: none; widows: 2; word-spacing: 0px; -webkit-text-stroke-width: 0px; white-space: pre-wrap; background-color: rgb(255, 255, 255); text-decoration-thickness: initial; text-decoration-style: initial; text-decoration-color: initial; display: inline-block;&quot;&gt;&lt;span class=&quot;WACImageContainer NoPadding DragDrop BlobObject SCXW126708771 BCX8&quot; role=&quot;presentation&quot; style=&quot;-webkit-user-drag: none; -webkit-tap-highlight-color: transparent; margin: 0px; padding: 0px; user-select: text; position: relative; cursor: move; left: 0px; top: 2px; display: inline-block; text-indent: 0px; width: 576px; height: 288px; transform: rotate(0deg);&quot;&gt;&lt;img class=&quot;WACImage SCXW126708771 BCX8&quot; src=&quot;data:image/png;base64,iVBORw0KGgoAAAANSUhEUgAAA+gAAAH0CAYAAACuKActAAAAAXNSR0IArs4c6QAAAARnQU1BAACxjwv8YQUAAAAJcEhZcwAAD2EAAA9hAag/p2kAAEglSURBVHhe7d0HnFTV/Tfgs4qCDbBEsCDWqNi7RmOsYH3tib3X2LCX2Agm9l5j18SeRGMvscZusHdj+UskigYBGyoy7/7O3tFlGWCJi3t393k+n8vMvefs7J07Z4f5zrnn3LpKvQQAAAC0qimKWwAAAKAVCegAAABQAgI6AAAAlICADgAAACUgoAMAAEAJCOgAAABQAgI6AAAAlICADgAAACUgoAMAAEAJCOgAAABQAgI6AAAAlICADgAAACUgoAMAAEAJCOgAAABQAgI6AAAAlICADgAAACUgoAMAAEAJCOgAAABQAgI6AAAAlICADgAAACUgoAMAAEAJCOgAAABQAgI6AAAAlICADgAAACUgoAMAAEAJCOgAAABQAgI6AAAAlICADgAAACUgoAMAAEAJCOgAAABQAgI6AAAAlICADgAAACUgoAMAAEAJCOgAAABQAgI6AAAAlICADgAAACUgoAMAAEAJCOgA/GDvvvtuqqurS1dccUWxhdYWr8dxxx1XrKX82sS2eK3Kouk+1tKW2tbcc8+dNthgg2KtZdR6/nHMYtuPYbXVVstL1YMPPph/95///Odiy+S144475uMK0FEI6AAt6PzzzxdSJ8EPOV7VwDm+5eqrry5q1vbYY4/loDN8+PBiy/cikNR6zHXWWaeo0XFcc8016cwzzyzWeOWVV3K7KdMXHc0xZMiQvN/PPfdcsaU8yrxvAD82AR2gBQnok+aHHK9VV101/fGPfxxnWXrppdOUU06Z1lxzzaJmbRHQBwwYUDOghznnnHOcxz700EOL0rZnu+22S19++WXq3bt3saV5BPSxRUCPdtOaAf2oo47Kr+WkiBAc+z2pIfiee+7Jy+Q0oX27+OKL0+uvv16sAbR/AjoAbdK8886btt1227GWzTbbLL355ptpjTXWSD179ixq/m+6des2zuPH405uX3zxRXGvZcWXFl26dMlnAtC2derUKb+Wk1O1HU499dR5aS1TTTVV6ty5c7EG0P4J6ECH9uyzz6Z11103de3aNU0//fS51/WJJ54oShuMb7xn9RTrak9ajJN8+eWX00MPPfTdKdGNx27Wct1116VlllkmzTDDDHkfFltssXTWWWcVpQ2ih7d///6pV69e+YPq/PPPn0466aQ0ZsyYokaDWI+ezkUWWSR/eO/Ro0faY4890ieffFLUaFAdJ/vII4+k5ZdfPteNsHvVVVcVNSYs9ifGhUaA7d69e9phhx1q9kJ/8MEHaaeddso90bHfs802W9poo42afbziMQ844IBcL34+Hmf77bdPH3/8cVFjXLfeemv69NNP0zbbbFNsqS1e00MOOSTfn2eeeb77/U17RUePHp0+++yzYq15qmN0r7/++nTkkUfmLwqmm2669P/+3/9LgwcPLmo1iOe76KKLpkGDBuUzAqaddtr8M+Grr75Kxx57bH694/nH6x89+LG9sViP4/STn/wkt6P4Pf/+97+L0u81ba9Vd955Z/rFL37xXRtcbrnlcq95iP27/fbb0//93/99d4wajwdu6X2cFK+99lrafPPN00wzzZTb8LLLLptuueWWorRB9Tk/+uij6cADD8y/P16LTTbZJH300UdFrQbx9xPtYvbZZ8+vw+qrr557y+P5RnsP8XhbbLFFvh/l1WMSr3ljk/tvq9Z70r333ptWWWWV/HPxXrbgggt+15Zi/+J1DfE3Wd3v6tkrE2qHUdb477Lq22+/nWj7bnzsGmv8mBPbt1pj0D///PN00EEHffeeGM/11FNPTZVKpajRIB5nn332STfffHN+flE33h/vuuuuogZA+QjoQIcV4fDnP/95ev7553OoOProo9M777yTPzg++eSTRa3mi3AcIXKhhRb67pTo3/zmN0XpuOID9VZbbZVmnHHGHLhPPPHE/LsjTFRFL1aEpz/96U85nJ599tlp5ZVXTkcccUQOHI1FGI/QGeUR8uPDbozD7tevX/rmm2+KWg3+9a9/5XCz9tprp9NOOy3vQ3wQjmMyIfEBOEJ2PLfoUT7++ONz0Iog0VT0Zt900015P+JU9v322y+H5/feey+XT+h4RSiO1+acc85Jffv2zc9nzz33zKFsQsEunu8000yTNt1002JLbVEexz6cccYZ3/3+CHBVb7zxRg4eESgjhET7aHocJ+R3v/tdDreHHXZYfu7xeq+11lrjnJr83//+N39JtOSSS+ZjEsEvwmIEnggdG264YT4OG2+8cd7XX/3qV8VPNth1113zz8VxijYUPY7rr79+UTphEYKi7rBhw3Kbip+P/agGmHg9Yn2WWWb57hjF7wo/1j7WEu10xRVXTK+++mo6/PDDcxuO1yp+f7S5pvbdd9/8dx5fJuy11175i5wIbo3F84/TrCPon3LKKWmBBRbIfzsRBqsivMZrGSKcVo/JwgsvnLeFH+Nvq6l47PjSLb4I+e1vf5t/b7w21feS2L/YHnbffffv9jueT1WtdjghzW3fE9OcfWssjlM8t2hnMSfE6aefngN6vPc1fU8M8WXJr3/967Tlllumk08+OY0aNSq/N8XzBSil+jc6gA6p/sN8Zeqpp6689dZbxZZKZciQIZX6QFap/3BYbKlU6j/UR7dMsfa9yy+/PG+vD/XFlkplkUUWqdQH6mJtwvbff/9K165dK6NHjy62jGvgwIGV+uBRqQ+LxZYG9aGkMuWUU1bqw25e/8c//pH3pT6g5vWq+qA1zvbevXvnbQ8//HCxpVIZOnRopXPnzpWDDjqo2FLbzTffnH+2/oNusaWS978+TOftcUzCJ598ktfrg05eH5/xHa9jjjkm//xf//rXYsv36oNhcW9s9R+48+v5y1/+stgyYbFv8Tsav35VO++8c+W4446r/OUvf6lcddVVlfpAkOs257EfeOCBXHeOOeaojBw5sthaqdxwww15+1lnnVVsqeTnHtsuvPDCYkuD+oBSmWKKKfLr2ljUi/r1wSuvP/fcc3m9PoDk9aqtt946b4+2W9W0vQ4fPjy39RVWWKFSH6rytqrGx7g+SOc209Tk2MdaYn+jXrVthTXXXLOy2GKLVerDVrGlYZ9/9rOfVeqDdbHl++dcHxzHek4HHHBA/vuJYxA++OCDSqdOnfJ7QmPRBuLn60NysaVSufHGG/O2eJ2b+jH+tkLT96T6sJrXP/roo2LLuJ5++ulxHqdqfO0wRFnjv9FJad9xPBofu6qmjzmhfYufb9z+qsfp+OOPL7Y02HzzzSt1dXWVf/3rX8WW3J2e3xMab3v++efz9nPOOafYAlAuetCBDilOz4yJj6LHLU5BrYrTsOuDQ+51qf/wWWydPOJU1Oidi56n8akPA7knOXrh4tTu6hI9VfEc6oPAd/XitNjotWtcL06fj9Nd6z9U53pVffr0yY9bFT3H0Qv19ttvF1tqu+OOO/L41+iFrIqxzdFD2Vj0Yse41Th9tekp9s1RH4zTEksskU9FbipOW60lLvv09ddfT/T09ua49NJLc29r9LTH5Gp/+9vf0m677ZbqQ8g4QyDGJ854iN73quhVjfYVx7CxOO02zjJoLF7P6FmMswsav57VMfDV17P6WNVe3aoYEjEx0e7ijIbogW46nnl8x7ixH2Mfa4ne/vvvvz/98pe/zPtf/b3RIxo93jEHwfvvv1/UbhA9s42fU7T9+PuJU/fDfffdl4czRE9rY03bdXNM7r+tWuK9JEQ7jTMb/he12uGENLd9t7R4/DguTdtTnPJe/7k2D9loLN4r55tvvmItpcUXXzwP5ZjY6wHQWgR0oEOK8adx+nh8cG4qQkd8yG06nrKlRRj46U9/mk8rjVO9d95553HGRkbYiG3xIb/xEh86w9ChQ/Nt1BsxYkSaddZZx6kbp4tX61XNNddcxb3vxZcAEwvTEWjiQ3iE/saaHsf4sB+n7ceH5RgLH6erxumlMS69Od566608ZnRSxOntMR45jufkEAEg/P3vf8+3ExOnSDcWATHGajcdAz7HHHOMMwlXvJ5x2nLT1zLaS6i+nvF6TDHFFGMFkFCrXTcVxzhM6nGu+jH2sZY4hTyCWAw5aPq740uVMLH2Hm09VNt7NajH69NYtKdq3eaa3H9btcSQghjaEkMJ4u8tTueOL5MmJazXaocT0tz23dLiOMU8AY2/HAjxvh2qr2XV//p6ALQWAR1gIsbXmxg9cD9EhOm4rFBMbBVjKqPHMcJl4zGn8QE7esWjt7PWEmMpq/Xi8WrViaU6xrMqeqBqieDTUqKHNMZxn3DCCbmHNgJVfIiOiflaWoxr/8c//pEn8IrxzZNDTEgVoge3JcXZBk3F6xkTBtZ6LWNp2tPbGlprH6uh8+CDD675e2NpGrR/jPZe9WP+rqpoQ3E2TXx5FGd8vPDCCzm0x3tHc9+narXDH2pyvXdOitZ4PQB+CAEd6JCity1mKq51fd2YiCx6/KqBrNqD1nQ25aY9NWF8H0jHJ3qsYoKtmEQtejRjoreY8Tl6CUP0OkYPePSY11qqvUNRL07xjV60WvXidPGW0Lt37/Sf//xnnJnNx3ed4tiv6HmO4QQvvfRSPgU9JrCqGt/xip+L+s117bXX5g/ck3J6+6S+VtVTYqPtNEf0MDcW+xeva9MZqWuJ5x9fBMRVBWq9ntVe1Xg9IrBWe8OrmnPd6PgdYWLHeUKv0eTex1qqQ1Lii5havzeWpr2rExP7GKp/d1XxN9W0p3VS201zTerfVlPxnhWvRUyaFrPPxyRuMRSgOtSgpfe7Oe073jtrzULf9L1zUvYtjlNcNz2GNzQW79uh+loCtFUCOtAhRa9KzCgdYzYbn5L54Ycf5ktMxeWKYpxiqAaZ6njvEGPHr7zyymLtezGTdK0PpDH7d3yAjA/gVU1nEY4P2DE+MlQvUxXjbB9//PF099135/XG4vfEuNkQ9aJXauDAgXm9sahTa58mptY+r7feevnxLrjggmJLQ29YzODdWAwfiNmSG4vjGMGp8SW4xne84syAmHW71ozctXq+4jWLLyvidaslxijHc2l8jfH43aHp74+5B5peJix+Z8yqHWKcc3PEFy2NQ0SMkY9j2ZxT8OP1jHHUF198cbHlezFLdnVm8epjxez+jVVnWp+QaP/xesQZDk1fq8bHOI5TDJ9o6sfYx1riTJG42sEf/vCHsdpmVdPLpzVHBNsY/924XYdzzz23uPe98bWbH6q5f1u11DqrI2ZjD9W23NL73Zz2HX/zMWdDfDFXddttt40zfGhS9i2OUxyXpq9NzOoeQb85f18ApVb/nzBAh/TSSy/lGdJjNuLf/e53lZNOOqky77zz5hmX6z9UFrUqlfoPl5X68FeZZZZZcp1TTz210qdPn8oyyywTKWasWcBjpur6D4l59vVrr722ct999+Xt1ZmoG89oHDNGr7rqqnmm6EsuuaRy9NFHV7p3716p/2Bdqf8AmuvUh5zK0ksvnWeY3nXXXSv1H97z74/HiX1vPGvzHnvskX9H/QfUPKtz/QfYPFP87LPPnmeerurdu3eembuppjMr19rn2K+VV145z94dzzV+xxprrFFZfPHFc93qLMzPPvtsZaaZZqrsueeelfpgVjn//PMra6+9dq5T/0E+1wnjO171H/zzMZ5yyikru+22W55d+ve//31lxRVXzLOCN/biiy/mx42Z7cenOuv1A41m3n7qqafytvoP/Hmm9vj9n332Wa7Ts2fPPNP3eeedl493POeou/vuuxc/PX7x81E3ZhmP4xKvRexbly5dKvPPP39+TavieMdM9k3FcY79imOz5ZZb5hmn6wNtPp5xXGPW66qtttoq/75tttkm7++mm2763evReIb06ozmjdtrtLvYtuiii+bjG+0rfsf2229f1KjkWcWjThyPa665pnLLLbfk7ZNjH2upNYv7yy+/XJlxxhkrM888cz62F110UW5DsT/xuFXV59x4X0L1NWrcHmKW9di24YYb5n2M17pXr175737HHXcsalUq9SE0t8toi1dccUVuNx9++GEua+7fVi3N/dsK1fZcFX/nSy21VOWoo46qXHzxxfn9LN7X5pxzzu9mqo/3sXh/WXDBBfPrHvv99ttv57LxtcPQdN8npX1XryKx+uqr57Z18MEH57+t+uA+1mNOaN+azuIexykeL9pdvEbxWm200Ub59/Tv37+o1SC27b333sXa9+LxGr+vAZSJgA50aM8880ylX79+lemnn74y7bTT5g9+jz32WFH6vUGDBuXLUcUleyKsn3766TUDT1yuKT6gzzDDDLms+iG0VtiNoNq3b9/KrLPO+t3jRsiOANBYhNUjjjgif/iNehEY4nJSERzjg21jEVTii4Npppkm70N8iD700EPz5eOqfkhAD3E5s+222y5fIq5bt275fgTyqFsNER9//HH+YLzQQgvlLxKiXhy/G264IZdXje94hfg9++yzTw4a8bwjbMS+xGM3FuEgfvaFF14otoyrVkAPEeri8SMURXk85wgGW2yxRWXuuefOoSPaRRzT+JJgzHgu8dZYNcBEyIjXLV7feD3ief7f//1fUatBPN/xBaN4beMLoSiPL40ikMZ+DBgwoDJixIiiViVfIm2//fbLYTWOdQTMwYMH532YWEAPEbijPcU+xmu6/PLL532vii8t4pJoEaDi5xuHpZbex1qq7bBxQA1vvfVW/iIhAt9UU02VX8cNNthgrC+Aqs+5OQF99OjR+UuyeLw4FhGOX3311bzP8aVDYxGC48u8COqNH+eHBPTQnL+t0DSgxxdbEVLjy7j4W4nb+FKk6eUZ//a3v+UvvuILv8aPOaF22HTfJ6V9h9NOOy2/NtE+4guIf/7znzWPx/j2rWlAD/GeGF8YxfOM1z4urReXTWz69xmPI6ADbU1d/FP/BgYAtIC4tNzqq6+eL0MWl56i7YpTrmMcdQxv+M1vflNsBYDJxxh0AKDDi3HzTVXHyceYdwD4MQjoAECHd/311+cgHtfrj6sqbL311mnAgAF5Mr24OgIA/BgEdACgw1t88cXzTO4R0OMa/nFd/f333z/95S9/KWoAwORnDDoAAACUgB50AAAAKAEBHQAAAErAKe4dzJgxY9KQIUPSDDPMkOrq6oqtAABARxNR8NNPP02zzz57mmIKfbdlIKB3MP/+979Tr169ijUAAKCjGzx4cJpzzjmLNVqTgN7BjBgxInXv3j3/EXbt2rXYCgAAdDQjR47MnXfDhw9P3bp1K7bSmgT0Dib+COOPL4K6gA4AAB2XbFA+BhoAAABACQjoAAAAUAICOgAAAJSAgA4AAAAlIKADAABACQjoAAAAUAICOgAAAJSAgA4AAAAlIKADAABACQjoAAAAUAICOgAAAJSAgA4AAAAlIKADAABACQjoAAAAUAICOgAAAJRAXaVecZ8OYOTIkalbt25pxIgRqWvXrsXWtqduQF1xb2yVYzVnAABojvaSDdoTPegAAABQAgI6AAAAlICADgAAACUgoAMAAEAJCOjN8PDDD6cNN9wwzT777Kmuri7dfPPNRUmDmGfvmGOOSbPNNluaZppp0lprrZXefPPNorTBsGHD0jbbbJMnX+jevXvaZZdd0meffVaUNnjhhRfSz3/+89SlS5fUq1evdPLJJxcl37vxxhvTQgstlOsstthi6Y477ihKAAAAaMsE9Gb4/PPP0xJLLJHOO++8YsvYIkifffbZ6cILL0xPPvlkmm666VK/fv3SqFGjihoph/OXX3453Xvvvem2227LoX/33XcvShtmUOzbt2/q3bt3GjRoUDrllFPScccdly666KKiRkqPPfZY2mqrrXK4f/bZZ9PGG2+cl5deeqmoAQAAQFvlMmuTKHrQb7rpphyMQxy+6Fk/6KCD0sEHH5y3xWUKevToka644oq05ZZbpldffTX16dMnPf3002nZZZfNde6666603nrrpX//+9/55y+44IL0m9/8Jn3wwQdp6qmnznUOP/zw3Fv/2muv5fVf/epX+cuCCPhVK664YlpyySXzlwPN4TJrAABAcJm18tGD/gO98847OVTHae1V0chXWGGF9Pjjj+f1uI3T2qvhPET9KaaYIve4h6iz6qqrfhfOQ/TCv/766+mTTz7J61Gn8e8JUaf6e2r56quv8h9e4wUAAIDyEdB/oAjnIXrMG4v1alnczjrrrPl+VadOndJMM800Vp1ajxEmVqdaXssJJ5yQvzCoLjG2HQAAgPIR0Nu5I444Ip+yUl0GDx5clAAAAFAmAvoP1LNnz3z74Ycf5tuqWK+Wxe3QoUPz/arRo0fnmd0b16n1GGFidarltXTu3DmPJ2m8AAAAUD4C+g80zzzz5IB83333FVsaJluIseUrrbRSXo/b4cOH59nZq+6///40ZsyYPFY9RJ2Y2f2bb77J6yFmfF9wwQXTjDPOmNejTuPfE6JO9fcAAADQdgnozRDXK3/uuefyEmJiuLj/3nvv5Vnd+/fvn44//vh0yy23pBdffDFtv/32eWb26kzvCy+8cFpnnXXSbrvtlp566qn06KOPpn322SfP8B71wtZbb50niItLqMXl2K6//vp01llnpQMPPDCXh/333z/P/n7aaaflmd3jMmz//Oc/82MBAADQtrnMWjM8+OCDafXVVy/WvrfDDjvkS6nFITz22GPzNcujp3yVVVZJ559/fvrpT39a1Ez5dPYI0rfeemuevX2zzTbL106ffvrpixopvfDCC2nvvffOl2ObZZZZ0r777psOO+yworTBjTfemI466qj07rvvpgUWWCBfgz0u19Zc0bvfHi6l4DJrAADww7SXbNCeCOgdjIAOAAAEAb18nOIOAAAAJSCgAwAAQAkI6JRWnMZeawEAAGiPBHQAAAAoAQEdAAAASkBABwAAgBIQ0AEAAKAEBHQAAAAoAQEdAAAASkBABwAAgBIQ0AEAAKAEBHQAAAAoAQEdAAAASkBABwAAgBIQ0AEAAKAEBHTanboBdTUXAACAMhPQAQAAoAQEdAAAACgBAR0AAABKQEAHAACAEhDQAQAAoAQEdAAAACgBAR0AAABKQEAHAACAEhDQAQAAoAQEdAAAACgBAR0AAABKQEAHAACAEhDQAQAAoAQEdAAAACgBAR0AAABKQEAHAACAEhDQAQAAoAQEdAAAACgBAR0AAABKQEAHAACAEhDQAQAAoAQEdAAAACgBAR0AAABKQEAHAACAEhDQAQAAoAQEdAAAACgBAR0AAABKQEAHAACAEhDQAQAAoAQEdAAAACgBAR0AAABKQEAHAACAEhDQAQAAoAQEdAAAACgBAR0AAABKQEAHAACAEhDQAQAAoAQEdAAAACgBAR0AAABKQEAHAACAEhDQAQAAoAQEdAAAACgBAR0AAABKQEAHAACAEhDQW8C3336bjj766DTPPPOkaaaZJs0333xp4MCBqVKpFDVSvn/MMcek2WabLddZa6210ptvvlmUNhg2bFjaZpttUteuXVP37t3TLrvskj777LOitMELL7yQfv7zn6cuXbqkXr16pZNPPrkoAQAAoC0T0FvASSedlC644IJ07rnnpldffTWvR3A+55xzihopr5999tnpwgsvTE8++WSabrrpUr9+/dKoUaOKGimH85dffjnde++96bbbbksPP/xw2n333YvSlEaOHJn69u2bevfunQYNGpROOeWUdNxxx6WLLrqoqAEAAEBbJaC3gMceeyxttNFGaf31109zzz132nzzzXOQfuqpp3J59J6feeaZ6aijjsr1Fl988XTVVVelIUOGpJtvvjnXiWB/1113pUsuuSStsMIKaZVVVskB/7rrrsv1wtVXX52+/vrrdNlll6VFFlkkbbnllmm//fZLp59+ei4HAACg7RLQW8DPfvazdN9996U33ngjrz///PPpkUceSeuuu25ef+edd9IHH3yQT2uv6tatWw7ijz/+eF6P2zitfdlll83rIepPMcUUucc9RJ1VV101TT311Hk9RC/866+/nj755JNiCwAAAG2RgN4CDj/88NybvdBCC6WpppoqLbXUUql///75lPUQ4Tz06NEj31bFerUsbmedddZ8v6pTp05ppplmGqtOrccI1TpNffXVV/nU+MYLAAAA5SOgt4Abbrghn35+zTXXpGeeeSZdeeWV6dRTT823re2EE07IvfXVJSaWAwAAoHwE9BZwyCGHfNeLvthii6XtttsuHXDAATkch549e+bbDz/8MN9WxXq1LG6HDh2a71eNHj06z+zeuE6txwjVOk0dccQRacSIEd8tgwcPLkoAAAAoEwG9BXzxxRd5rHhjU045ZRozZky+H5dfiwAd49Sr4lTzGFu+0kor5fW4HT58eJ6dver+++/PjxFj1UPUiZndv/nmm7weYsb3BRdcMM0444zFlrF17tw5X7at8dKR1Q2oq7kAAAC0NgG9BWy44Ybpd7/7Xbr99tvTu+++m2666aY8s/omm2ySy+vq6vKY9OOPPz7dcsst6cUXX0zbb799mn322dPGG2+c6yy88MJpnXXWSbvttlue/f3RRx9N++yzT+6Vj3ph6623zhPExfXR43Js119/fTrrrLPSgQcemMsBAABouwT0FhCXQ4tLq/3617/OQfvggw9Oe+yxRxo4cGBRI6VDDz007bvvvvm65sstt1z67LPP8mXVunTpUtRouIxaTDS35pprpvXWWy9faq3xNc5jDPk999yTZ4VfZpll0kEHHZSOOeaYsa6VDgAAQNtUV4mLdNNhxKn1EfRjPHrZT3cf36nnlWMrk6UMAAA6kraUDToKPegAAABQAgI6AAAAlICADgAAACUgoAMAAEAJCOgAAABQAgI6AAAAlICADo3EZdiaLgAAAD8GAR0AAABKQEAHAACAEhDQAQAAoAQEdAAAACgBAR0AAABKQEAHAACAEhDQAQAAoAQEdAAAACgBAR0AAABKQEAHAACAEhDQAQAAoAQEdAAAACgBAR2aqW5A3TgLAABASxHQAQAAoAQEdAAAACgBAR0AAABKQEAHAACAEhDQAQAAoAQEdAAAACgBAR0AAABKQEAHAACAEhDQAQAAoAQEdAAAACgBAR1aQN2AunEWAACASSGgAwAAQAkI6AAAAFACAjoAAACUgIAOAAAAJSCgAwAAQAkI6AAAAFACAjoAAACUgIAOAAAAJSCgw2RWN6BunAUAAKApAR0AAABKQEAHAACAEhDQAQAAoAQEdAAAACgBAR0AAABKQEAHAACAEhDQAQAAoAQEdAAAACgBAR0AAABKQEAHAACAEhDQAQAAoAQEdAAAACgBAR0AAABKQEAHAACAEhDQAQAAoAQEdGhFdQPqxlkAAICOSUCHkhLeAQCgYxHQAQAAoAQEdAAAACgBAR3Iap1SHwsAAPDjENABAACgBAT0FvL++++nbbfdNs0888xpmmmmSYsttlj65z//WZSmVKlU0jHHHJNmm222XL7WWmulN998syhtMGzYsLTNNtukrl27pu7du6dddtklffbZZ0VpgxdeeCH9/Oc/T126dEm9evVKJ598clECAABAWyagt4BPPvkkrbzyymmqqaZKd955Z3rllVfSaaedlmacccaiRspB+uyzz04XXnhhevLJJ9N0002X+vXrl0aNGlXUSDmcv/zyy+nee+9Nt912W3r44YfT7rvvXpSmNHLkyNS3b9/Uu3fvNGjQoHTKKaek4447Ll100UVFDQAAANoqAb0FnHTSSbk3+/LLL0/LL798mmeeeXKQnm+++XJ59J6feeaZ6aijjkobbbRRWnzxxdNVV12VhgwZkm6++eZc59VXX0133XVXuuSSS9IKK6yQVllllXTOOeek6667LtcLV199dfr666/TZZddlhZZZJG05ZZbpv322y+dfvrpuRwAAIC2S0BvAbfccktadtll0xZbbJFmnXXWtNRSS6WLL764KE3pnXfeSR988EE+rb2qW7duOYg//vjjeT1u47T2eJyqqD/FFFPkHvcQdVZdddU09dRT5/UQvfCvv/567sWv5auvvso9740XAAAAykdAbwFvv/12uuCCC9ICCyyQ7r777rTXXnvlnu0rr7wyl0c4Dz169Mi3VbFeLYvbCPeNderUKc0000xj1an1GKFap6kTTjghfxlQXaKnn46r1iztsQAAAK1PQG8BY8aMSUsvvXT6/e9/n3vPY9z4brvtlsebt7YjjjgijRgx4rtl8ODBRQkAAABlIqC3gJiZvU+fPsVag4UXXji99957+X7Pnj3z7Ycffphvq2K9Wha3Q4cOzferRo8enWd2b1yn1mOEap2mOnfunGeFb7zQvtXqIY8FAAAoNwG9BcQM7jEOvLE33ngjz7YeYtK4CND33XdfXg8xFjzGlq+00kp5PW6HDx+eZ2evuv/++3PvfIxVD1EnZnb/5ptv8nqIGd8XXHDBsWaMBwAAoO1p1wF93nnnTf/973+Lte9FEI6ylnLAAQekJ554Ip/i/q9//Stdc801+dJne++9dy6vq6tL/fv3T8cff3yeUO7FF19M22+/fZp99tnTxhtvnOtEj/s666yTT41/6qmn0qOPPpr22WefPFN71Atbb711niAuro8el2O7/vrr01lnnZUOPPDAXA4AAEDb1a4D+rvvvpu+/fbbYu17MbP5+++/X6z9cMstt1y66aab0rXXXpsWXXTRNHDgwHxZtbiuedWhhx6a9t133zw+Pep/9tln+bJqXbp0KWo0XEZtoYUWSmuuuWZab7318qXWGl/jPCZ5u+eee/Ks8Msss0w66KCD0jHHHDPWtdIBAABom+oqcZHudiZ6qUP0TsdM6hFsqyKwx6nmcWp409PSO4I4tT6OR0wYV/bx6OMbN105tjJZykKt8rZSFqJ8cpQBAND+tKVs0FG0yx70COaxxKnlO+yww3frscQp4xHOTzvttKI2AAAAtL52GdBjYrVY5pprrjwzenU9lji9PXrON9hgg6I2AAAAtL52PQY9xmrPMsssxRoAAACUV7sO6CHGmx955JFp1113TTvvvPNYCwAAAJRFuw7oAwYMSH379s0h/eOPP06ffPLJWAsAAACURbsO6BdeeGG64oor0pNPPpluvvnmfCm0xgsAAACURbsO6F9//XX62c9+VqwBAABAebXrgB7jzq+55ppiDQAAAMqrXQf0UaNGpdNPPz394he/SPvuu2868MADx1oAAACgLNp1QH/hhRfSkksumaaYYor00ksvpWefffa75bnnnitqAQAAQOtr1wH9gQceGO9y//33F7UAAACg9bXrgA4AAABtRbsO6KuvvnpaY401xrsAAABAWbTrgB7jz5dYYonvlj59+uRLrz3zzDNpscUWK2oBAABA62vXAf2MM84Yazn33HPTI488kvr375+mmmqqohYAAAC0vg45Bn3bbbdNl112WbEGAAAAra9DBvTHH388denSpVgDJqZuQF3NBQAAaDntOqBvuummYy2bbLJJWnHFFdNOO+2U9thjj6IWAAAAtL52HdC7des21jLTTDOl1VZbLd1xxx3p2GOPLWoBAABA62vXAf3yyy8fa7n00kvTiSeemPr27VvUAAAAgHLoEGPQBw0alP70pz/l5dlnny22AgAAQHm064A+dOjQtMYaa6Tlllsu7bfffnlZZpll0pprrpk++uijohYAAAC0vnYd0Pfdd9/06aefppdffjkNGzYsLy+99FIaOXJkDusAAABQFu06oN91113p/PPPTwsvvHCxJaU+ffqk8847L915553FFgAAAGh97TqgjxkzJk011VTF2vdiW5QBAABAWbTrgB7jz/fff/80ZMiQYktK77//fjrggAPyOHQAAAAoi3Yd0M8999w83nzuuedO8803X17mmWeevO2cc84pagEAAEDra9cBvVevXumZZ55Jt99+e+rfv39e7rjjjrxtzjnnLGoBAABA62uXAf3+++/Pk8FFT3ldXV1ae+2184zuscQl1xZZZJH0j3/8o6gNAAAAra9dBvQzzzwz7bbbbqlr167Flu9169Yt7bHHHun0008vtgA/RN2AupoLAAAwadplQH/++efTOuusU6yNq2/fvmnQoEHFGgAAALS+dhnQP/zww5qXV6vq1KlT+uijj4o1AAAAaH3tMqDPMccc6aWXXirWxvXCCy+k2WabrVgDAACA1tcuA/p6662Xjj766DRq1Khiy/e+/PLLdOyxx6YNNtig2AIAAACtr10G9KOOOioNGzYs/fSnP00nn3xy+tvf/paXk046KS244IK57De/+U1RGwAAAFpfuwzoPXr0SI899lhadNFF0xFHHJE22WSTvBx55JF52yOPPJLrAAAAQFm0y4Aeevfune6444708ccfpyeffDI98cQT+X5sm2eeeYpaAAAAUA7tNqBXzTjjjGm55ZZLyy+/fL4PAAAAZdTuAzoAAAC0BQI6AAAAlICADgAAACUgoAOTTd2AupoLAAAwLgEdAAAASkBAB1pFrZ71WAAAoKMS0AEAAKAEBHQAAAAoAQEdAAAASkBABwAAgBIQ0AEAAKAEBHQAAAAoAQEdAAAASkBABwAAgBIQ0AEAAKAEBHQAAAAoAQEdAAAASkBAB0qnbkBdzQUAANozAR0AAABKQEAHAACAEhDQAQAAoAQEdAAAACgBAX0yOPHEE1NdXV3q379/sSWlUaNGpb333jvNPPPMafrpp0+bbbZZ+vDDD4vSBu+9915af/3107TTTptmnXXWdMghh6TRo0cXpQ0efPDBtPTSS6fOnTun+eefP11xxRVFCQAAAG2ZgN7Cnn766fSHP/whLb744sWWBgcccEC69dZb04033pgeeuihNGTIkLTpppsWpSl9++23OZx//fXX6bHHHktXXnllDt/HHHNMUSOld955J9dZffXV03PPPZe/ANh1113T3XffXdQAAACgrRLQW9Bnn32Wttlmm3TxxRenGWecsdia0ogRI9Kll16aTj/99LTGGmukZZZZJl1++eU5iD/xxBO5zj333JNeeeWV9Kc//SktueSSad11100DBw5M5513Xg7t4cILL0zzzDNPOu2009LCCy+c9tlnn7T55punM844I5cDAADQdgnoLShOYY8e7rXWWqvY0mDQoEHpm2++GWv7QgstlOaaa670+OOP5/W4XWyxxVKPHj3yeujXr18aOXJkevnll/N61Gn62FGn+hgAAAC0XQJ6C7nuuuvSM888k0444YRiy/c++OCDNPXUU6fu3bsXWxpEGI+yELeNw3mork+sToT4L7/8stgytq+++iqXN14AAAAoHwG9BQwePDjtv//+6eqrr05dunQptpZDfGHQrVu375ZevXoVJQAAAJSJgN4C4hT2oUOH5tnVO3XqlJeYCO7ss8/O96OXO8aRDx8+vPiJBjGLe8+ePfP9uG06q3t1fWJ1unbtmqaZZppiy9iOOOKIPAa+usSXCdCW1Q2oq7kAAEBbJ6C3gDXXXDO9+OKLeWb16rLsssvmCeOq96eaaqp03333FT+R0uuvv54vq7bSSivl9biNx4igX3Xvvffm8N2nT5+8HnUaP0aIOtXHqCUuxxaP0XgBAACgfAT0FjDDDDOkRRdddKxluummy9c8j/txavkuu+ySDjzwwPTAAw/kHveddtopB+sVV1wxP0bfvn1zEN9uu+3S888/ny+ddtRRR+WJ5yJkhz333DO9/fbb6dBDD02vvfZaOv/889MNN9yQL+EGAABA2yag/0jiUmgbbLBB2myzzdKqq66aT1f/61//WpSmNOWUU6bbbrst30Zw33bbbdP222+ffvvb3xY1Ur7E2u233557zZdYYol8ubVLLrkkz+QOAABA2yagTyYPPvhgOvPMM4u1lCePi2uaDxs2LH3++ec5nFfHllf17t073XHHHemLL75IH330UTr11FPzGPbGVltttfTss8/m2dnfeuuttOOOOxYlAAAAtGUCOtBu1Jo8LhYAAGgLBHQAAAAoAQEdAAAASkBABwAAgBIQ0AEAAKAEBHSgwzCBHAAAZSagAwAAQAkI6AAAAFACAjoAAACUgIAOAAAAJSCgAwAAQAkI6AAAAFACAjoAAACUgIAOAAAAJSCgAwAAQAkI6AAAAFACAjoAAACUgIAOAAAAJSCgAwAAQAkI6AAAAFACAjpAvboBdeMsAADwYxLQAQAAoAQEdICJ0LsOAMCPQUAHAACAEhDQAQAAoAQEdAAAACgBAR0AAABKQEAHAACAEhDQAQAAoAQEdIDJxOXZAACYFAI6wA8ghAMA0FIEdAAAACgBAR0AAABKQEAHAACAEhDQAQAAoAQEdAAAACgBAR0AAABKQEAHAACAEhDQAQAAoAQEdAAAACgBAR2gFdQNqBtnAQCgYxPQAQAAoAQEdAAAACgBAR0AAABKQEAHAACAEhDQAUqm1gRysQAA0L4J6AAAAFACAjoAAACUgIAOAAAAJSCgAwAAQAkI6ADtRK2J5WIBAKBtENABAACgBAR0AAAAKAEBHaANqXUKeywAALR9AjoAAACUgIAOAAAAJSCgAwAAQAkI6AAdQK1x67EAAFAeAjpAB1cruMcCAMCPS0AHAACAEhDQAQAAoAQE9BZwwgknpOWWWy7NMMMMadZZZ00bb7xxev3114vSBqNGjUp77713mnnmmdP000+fNttss/Thhx8WpQ3ee++9tP7666dpp502P84hhxySRo8eXZQ2ePDBB9PSSy+dOnfunOaff/50xRVXFCUAAAC0ZQJ6C3jooYdy+H7iiSfSvffem7755pvUt2/f9Pnnnxc1UjrggAPSrbfemm688cZcf8iQIWnTTTctSlP69ttvczj/+uuv02OPPZauvPLKHL6POeaYokZK77zzTq6z+uqrp+eeey71798/7brrrunuu+8uagAAANBWCegt4K677ko77rhjWmSRRdISSyyRg3X0hg8aNCiXjxgxIl166aXp9NNPT2ussUZaZpll0uWXX56DeIT6cM8996RXXnkl/elPf0pLLrlkWnfdddPAgQPTeeedl0N7uPDCC9M888yTTjvttLTwwgunffbZJ22++ebpjDPOyOUAAAC0XQL6ZBCBPMw000z5NoJ69KqvtdZaeT0stNBCaa655kqPP/54Xo/bxRZbLPXo0SOvh379+qWRI0eml19+Oa9HncaPEaJO9TFq+eqrr/JjNF4AAAAoHwG9hY0ZMyafer7yyiunRRddNG/74IMP0tRTT526d++e16sijEdZiNvG4TxU1ydWJ0L3l19+WWwZW4yP79at23dLr169ihKAiat1+bVYJlYGAMCkE9BbWIxFf+mll9J1111XbGldRxxxRO7Rry6DBw8uSgAAACgTAb0FxZjw2267LT3wwANpzjnnLLam1LNnzzyOfPjw4cWWBjGLe5SFuG06q3t1fWJ1unbtmqaZZppiy9hitvcob7wAAABQPgJ6C6hUKjmc33TTTen+++/PE7k1FpPCTTXVVOm+++4rtqR8GbaYSG6llVbK63H74osvpqFDh+b1EDPCR6Du06dPXo86jR8jRJ3qYwAAANB2CegtIE5rj9nXr7nmmnwt9BgrHkt1XHiM/d5ll13SgQcemHvXY9K4nXbaKQfrFVdcMdeJy7JFEN9uu+3S888/ny+ddtRRR+XHjl7wsOeee6a33347HXrooem1115L559/frrhhhvyJdwAyqTW2PRYAAAYPwG9BVxwwQV5fPdqq62WZptttu+W66+/vqiR8qXQNthgg7TZZpulVVddNZ+u/te//rUoTWnKKafMp8fHbQT3bbfdNm2//fbpt7/9bVEj5Z7522+/Pfeax+Xc4nJrl1xySZ7JHQAAgLZNQG8BcYp7rSWujV7VpUuXfE3zYcOGpc8//zyH8+rY8qrevXunO+64I33xxRfpo48+Sqeeemrq1KlTUdogvgR49tln8+XT3nrrrbF+BwAAAG2XgA4AAAAlIKADAABACQjoAAAAUAICOgAAAJSAgA7Aj6rW5ddimVgZAEB7J6ADAABACQjoAAAAUAICOgAAAJSAgA5Am1BrbHosAADthYAOAAAAJSCgA9Au6F0HANo6AR0AAABKQEAHoN3Tuw4AtAUCOgAAAJSAgA4AAAAlIKADAABACQjoAAAAUAICOgAAAJSAgA5Ah2aGdwCgLAR0AAAAKAEBHQDGY0K96xMqm5BaPxcLAICADgAtTAAHAP4XAjoAlEStYB8LANAxCOgAAABQAgI6AAAAlICADgBtQK1T32MBANoPAR0AAABKQEAHAACAEhDQAaCNq3XqeywAQNsioANAO1YruMcCAJSPgA4AHVSt4B4LANA6BHQAYBy1gnssAMDkI6ADAABACQjoAAAAUAICOgAwSWqd+h7LxMoAgAkT0AEAAKAEBHQA4EdRq2c9FgCggYAOAJSC8A5ARyegAwAAQAkI6AAAAFACAjoAAACUgIAOAJTehManT6gMANoSAR0AaLeEdwDaEgEdAOiQhHcAykZABwAAgBIQ0AEAmtC7DkBrENABACZBrfAeS2uUAdC+COgAAABQAgI6AADNUqsnP5Yyaiv7CdCYgA4A0EbVCqGxTKxsQmr9TCwATH4COgBAB1MrgMcCQOsS0AEA+MFqBf5Yqv7XMoCOREAHAKC0hHegIxHQAQBokyZHeK/1mLG0hlr7EQvQfgnoAAB0KP9r6K31c7FMrjKg4xHQAQCgjakV6mOZmFo/EwtQDgI6AABQM7jHAvx4BHQAAGhHaoXsWH6IWo8XS9WEyv5Xk+MxoewEdAAAYLKZUNCeUNmETOjnJrUslh+i1uPFAv8LAR0AAOjwaoXsWCZWNiG1fiYWGB8BvQ0677zz0txzz526dOmSVlhhhfTUU08VJQAAALRVAnobc/3116cDDzwwHXvssemZZ55JSyyxROrXr18aOnRoUQMAAIC2SEBvY04//fS02267pZ122in16dMnXXjhhWnaaadNl112WVEDAACAtkhAb0O+/vrrNGjQoLTWWmsVW+pfwCmmyOuPP/54sQUAAIC2SEBvQz7++OP07bffph49ehRbGsT6Bx98UKyN7auvvkojR478bhkxYkTe3nhbWZc0qn5HayyTq2x85W2lLBZl4y8bX3lbKYtF2fjLxlfeVspi6ehl4ytvK2WxKBt/2fjK20pZLMrGXza+8rZSFktrlJVlCZVKJd/S+urqXwyvRhsxZMiQNMccc6THHnssrbTSSsXWlA499ND00EMPpSeffLLY8r3jjjsuDRgwoFgDAAAY2+DBg9Occ85ZrNGaBPQ2JE5xj/Hmf/7zn9PGG29cbE1phx12SMOHD09/+9vfii3fix70WKrGjBmThg0blmaeeeZUV1eeSzzEt3e9evXKbw5du3YttsL4aTNMKm2G/4V2w6TSZphUrdlmIgp++umnafbZZ89DZ2l9AnobE5dVW3755dM555yT1yNwzzXXXGmfffZJhx9+eN7WFsUbU7du3fIp+P4zozm0GSaVNsP/QrthUmkzTCpthsZ8TdLGxCXWLr744nTllVemV199Ne21117p888/z7O6AwAA0HYJ6G3Mr371q3TqqaemY445Ji255JLpueeeS3fdddc4E8cBAADQtkx5XMwiRpsSp7gfcMAB6eijj87XRG8vEzpMOeWUabXVVkudOnUqtsCEaTNMKm2G/4V2w6TSZphU2gxVxqADAABACTjFHQAAAEpAQAcAAIASENABAACgBAR0AAAAKAEBnVI477zz0txzz526dOmSVlhhhfTUU08VJXRkJ5xwQlpuueXSDDPMkGaddda08cYbp9dff70obTBq1Ki09957p5lnnjlNP/30abPNNksffvhhUUpHd+KJJ6a6urrUv3//Yos2Q23vv/9+2nbbbXO7mGaaadJiiy2W/vnPfxalKcWcunGJ09lmmy2Xr7XWWunNN98sSulovv3223w1nXnmmSe3h/nmmy8NHDgwt5MqbaZje/jhh9OGG26YZp999vz/0M0331yUNGhO+xg2bFjaZpttUteuXVP37t3TLrvskj777LOilPZKQKfVXX/99enAAw9Mxx57bHrmmWfSEksskfr165eGDh1a1KCjeuihh3KQeuKJJ9K9996bvvnmm9S3b9/0+eefFzVSvuTgrbfemm688cZcf8iQIWnTTTctSunInn766fSHP/whLb744sWWBtoMTX3yySdp5ZVXTlNNNVW688470yuvvJJOO+20NOOMMxY1Ujr55JPT2WefnS688ML05JNPpummmy7/XxVf+NDxnHTSSemCCy5I5557bnr11VfzerSRc845p6ihzXR08VklPtNGJ1QtzWkfEc5ffvnl/Bnotttuy6F/9913L0pptyrQypZffvlKfQgr1iqVb7/9tjL77LNXTjjhhGILNBg6dGh0TVTqQ1VeHz58eKX+A3WlPmjl9VD/QSnXefzxx4stdESffvppZYEFFqjUf6ip/OIXv6jsv//+ebs2Qy2HHXZYZZVVVinWxjVmzJhKz549K6ecckqxpaEtde7cuXLttdcWW+hI1l9//crOO+9crDXYdNNNK/WBKt/XZmgs/o+56aabirXmtY9XXnkl/9zTTz+d18Odd95Zqaurq7z//vvFFtojPei0qq+//joNGjQon9ZTNcUUU+T1+g/LxRZoMGLEiHw700wz5dtoO9Gr3rj9LLTQQmmuuebSfjq4OPOi/gP0WG0jaDPUcsstt6Rll102bbHFFnk4zVJLLZUuvvjiojSld955J33wwQdjtZtu3brlIVnaTcf0s5/9LN13333pjTfeyOvPP/98euSRR9K6666b17UZJqQ57SNu47T2eG+qivrxOTl63Gm/BHRa1ccff5zHcfXo0aPY0iDW440LqsaMGZPHEcdpqIsuumjeFm1k6qmnzv+BNab9dGzXXXddHi4Tcxg0pc1Qy9tvv51PV15ggQXS3Xffnfbaa6+03377pSuvvDKXV9uG/6uoOvzww9OWW26Zv+CLoRHxpU78HxWnJAdthglpTvuI2/jCsLFOnTrlTgptqH0T0IE2IXpEX3rppRy+YHwGDx6c9t9//3T11VfnSSehOeILwKWXXjr9/ve/z0ErxnjutttueWwo1HLDDTfk95lrrrkmfyEYX+aceuqp332pA/C/EtBpVbPMMkuacsopx5lBOdZ79uxZrNHR7bPPPnlylAceeCDNOeecxdaU20gMkxg+fHixpYH203HFKewxwWSErehpiCUmgouJeOJ+9E5oMzQVsyj36dOnWGuw8MILp/feey/fr7YN/1dRdcghh3zXix4z/m+33XZ5AsrqmTvaDBPSnPYRt00nTB49enSe2V0bat8EdFpVnGq6zDLL5HFcVdGTEesrrbRSsYWOqlKp5HB+0003pfvvvz9fzqaxaDtxamHj9hOXYYsP1dpPx7TmmmumF198MT333HPfLTF+L047rd7XZmgqhs40vYRjjC3u3bt3vh/vPfGBuHG7GTlyZB4Hqt10TF988UUeC9xYdDjEZ5igzTAhzWkfcRtfJscXz1XxWSjaWIxVp/2a8rh6xX1oFXFtx7iWaK9evVLnzp3z/fggfemll+ZrFNNxxWntcQrhn//853wd0bj2ZyzxIShCVpzCHJfIisvcLLnkkvlb5T322CO3pbhsHx1PvIfEmL3GS5yCOu+886btt99em6GmmCRwwIAB+SyL6E2/6667Unw8iutax2X64hrGMV9KnAIfPe1xFkaMUY+QFpfVip+jY4lLq8Xp7AsuuGDubIgzvI488si09dZbp7XXXlubIX9eiUs2xnjxuORnhOq43nm0hZgHZWLt4yc/+UkO7Ndee20eevPuu+/m/6/icrM77rhj8Vtolxomc4fWVf9mVKn/gFSp/08uX3btiSeeKEroyOItqtZy+eWXFzUqlS+//LLy61//ujLjjDNWpp122somm2xS+c9//lOUQmWsy6wFbYZabr311sqiiy6aL3O00EILVS666KKipMGYMWMqRx99dKVHjx65zpprrll5/fXXi1I6mpEjR+b3lfjs0qVLl8q8885b+c1vflP56quvihraTEf3wAMP1PwMs8MOO+Ty5rSP//73v5WtttqqMv3001e6du1a2WmnnfJlRGnf6uKf+sYCAAAAtCJj0AEAAKAEBHQAAAAoAQEdAAAASkBABwAAgBIQ0AEAAKAEBHQAAAAoAQEdAAAASkBAB4AS2HHHHdPGG29crKW02mqrpf79+xdrP54HH3ww1dXVpeHDhxdbxhXlN998c7HWuo477ri05JJLFmsA0LYJ6AAwHhGaI4zGMvXUU6f5558//fa3v02jR48uakw+f/3rX9PAgQOLtQlrTqhuD8r0xQAATA4COgBMwDrrrJP+85//pDfffDMddNBBucf2lFNOKUrH9vXXXxf3friZZpopzTDDDMUaANARCOgAMAGdO3dOPXv2TL1790577bVXWmuttdItt9ySy6qnpf/ud79Ls88+e1pwwQXz9sGDB6df/vKXqXv37jlob7TRRundd9/NZeHbb79NBx54YC6feeaZ06GHHpoqlUpR2qDpKe5fffVVOuyww1KvXr3yPkVv/qWXXpofd/XVV891ZpxxxtzLHPsVxowZk0444YQ0zzzzpGmmmSYtscQS6c9//nMuq7rjjjvST3/601wej9N4P5trYs+3epxOPfXUNNtss+XnvPfee6dvvvmmqJHylyDrr79+3o/Y32uuuSbNPffc6cwzz8zlcT9ssskm+TlW16v++Mc/5m3dunVLW265Zfr000+LEgBoOwR0AJgEESAb95Tfd9996fXXX0/33ntvuu2223Lo7NevX+79/sc//pEeffTRNP300+ee+OrPnXbaaemKK65Il112WXrkkUfSsGHD0k033ZTLxmf77bdP1157bTr77LPTq6++mv7whz/kx43A/pe//CXXif2IoHvWWWfl9QjnV111VbrwwgvTyy+/nA444IC07bbbpoceeiiXR7DedNNN04Ybbpiee+65tOuuu6bDDz88lzVXc55veOCBB9Jbb72Vb6+88sr8/GOpiuc3ZMiQfLp+PJ+LLrooDR06tChN6emnn863l19+eX6O1fUQjxunvsfxjyWe34knnliUAkAbUgEAatphhx0qG220Ub4/ZsyYSn0Ir3Tu3Lly8MEH521R3qNHj8pXX32V18Mf//jHyoILLpjrV0V5fbCv3H333Xl9ttlmq5x88sn5fqgPuZU555zzu98VfvGLX1T233//fL8+eEf3ev79tdSH3lz+ySefFFsqlVGjRlWmnXbaymOPPVZsabDLLrtUttpqq3z/iCOOqPTp0yffrzrssMPGeaymovymm27K95vzfOM49e7duzJ69Oi8HrbYYovKr371q3z/1VdfzY9ZH7rzenjzzTfztjPOOKPYMvbvrTr22GPz8xw5cmSxpVI55JBDKiussEKxBgBthx50AJiA6JGNHuEuXbqkddddN9WHyjwOvWqxxRbLE8hVPf/88+lf//pX7lGOn4slTvuuD8y5p3fEiBG5B7g+QBY/kVKnTp3SsssuW6yNK3q3p5xyylQf2ostExf78MUXX6S11177u/2IJXrUYz9C9MQ33o+w0korFfeaZ2LPt2qRRRbJz6EqTnWv9pBHz38cg6WXXjqvhziFP07Zb444tb3xeP3Gjw0AbYmADgATEOOyIyDHJHFffvllPj17uummK0rTWPfDZ599lpZZZpn8M42XN954I2299dZFrUkTp9VPqtiPcPvtt4+1H6+88so449B/iOY+36mmmqq41yDGkccY+ZYwOR8bAH5MAjoATEAE8OjNnWuuuXIv78REL3CE+VlnnTX/XOMlJjCLJXp4n3zyyeInUr5s26BBg4q1cUUvfQTO6tjxpqo9+DH5XFWfPn3yZHLvvffeOPsR49bDwgsvnJ566ql8v+qJJ54o7jXPxJ5vc8TkenEMnn322WJLwxkAn3zySbHWIIJ44+cIAO2NgA4ALWibbbZJs8wyS57JPCZNe+edd/LEZ/vtt1/697//nevsv//+eRKzmNjstddeS7/+9a8neA3zOIV7hx12SDvvvHP+mepj3nDDDbk8ZpiPXuM4Hf+jjz7KvdpxyvfBBx+cJ4aLXv843fyZZ55J55xzTl4Pe+65Zw7XhxxySD7NPGZObzxxW3M05/lOzEILLZRnx999993zFwYR1ON+nDkQz6sqjkNMyvfBBx+ME94BoD0Q0AGgBU077bTp4Ycfzj3uMUN69FLvsssueUx2165dc524nvp2222XQ3eM+Y4wHZcPm5ALLrggbb755jnMR6Ddbbfd0ueff57L5phjjjRgwIA8A3uPHj3SPvvsk7cPHDgwHX300Xk299iPmFk9TnmPy5iF2MeYMT1Cf1yCLWZ7//3vf5/Lmqs5z7c5Ymx87Puqq66aj0U8vzguMfa/Kma/j9ny4wyApZZaqtgKAO1HXcwUV9wHACiF6H2PIP73v/89rbnmmsVWAGjfBHQAoNXdf//9+dT8GG8fs9wfeuih6f3338+TzTWdBA4A2iunuAMAre6bb75JRx55ZL4cW5zi/pOf/CSPZRfOAehI9KADAABACehBBwAAgBIQ0AEAAKAEBHQAAAAoAQEdAAAASkBABwAAgBIQ0AEAAKAEBHQAAAAoAQEdAAAASkBABwAAgBIQ0AEAAKAEBHQAAABodSn9fwT/rQV5Qk1EAAAAAElFTkSuQmCC&quot; style=&quot;-webkit-user-drag: none; -webkit-tap-highlight-color: transparent; margin: 0px; padding: 0px; user-select: text; border: none; white-space: pre !important; vertical-align: baseline; width: 576px; height: 288px;&quot;&gt;&lt;span class=&quot;WACImageBorder SCXW126708771 BCX8&quot; style=&quot;-webkit-user-drag: none; -webkit-tap-highlight-color: transparent; margin: 0px; padding: 0px; user-select: text; white-space: pre !important; display: block; position: absolute; transform: rotate(0deg); width: 576px; height: 288px; left: -1px; top: -1px;&quot;&gt;&lt;/span&gt;&lt;/span&gt;&lt;/span&gt;&lt;span data-contrast=&quot;auto&quot; lang=&quot;EN-US&quot; class=&quot;TextRun EmptyTextRun SCXW126708771 BCX8&quot; style=&quot;-webkit-user-drag: none; -webkit-tap-highlight-color: transparent; margin: 0px; padding: 0px; user-select: text; font-variant-ligatures: none !important; color: rgb(0, 0, 0); font-style: normal; font-variant-caps: normal; font-weight: 400; letter-spacing: normal; orphans: 2; text-align: left; text-indent: 0px; text-transform: none; widows: 2; word-spacing: 0px; -webkit-text-stroke-width: 0px; white-space: pre-wrap; background-color: rgb(255, 255, 255); text-decoration-thickness: initial; text-decoration-style: initial; text-decoration-color: initial; font-size: 11pt; line-height: 19.55px; font-family: Cambria, Cambria_EmbeddedFont, Cambria_MSFontService, serif;&quot;&gt;&lt;br class=&quot;Apple-interchange-newline&quot;&gt;&#xa;&#xa;&lt;/span&gt;" style="text;whiteSpace=wrap;html=1;fontFamily=Architects Daughter;fontSource=https%3A%2F%2Ffonts.googleapis.com%2Fcss%3Ffamily%3DArchitects%2BDaughter;" vertex="1" parent="1">
          <mxGeometry x="790" y="20" width="560" height="370" as="geometry" />
        </mxCell>
        <mxCell id="Gz4Njnf0Q3PMrMddDzjn-5" value="" style="shape=stencil(fZbdcgIhDIWfZm8zQAg/17Z9j85U606tdqz9e/tmZ0c0uJ47xP0I5JwEBl59bp8/1kNwn6fj4W39M76ctgM/DCGM++36OJ50NPDjwKvN4bh+PR6+9i/z74/n6ctp9H74nlb4nbmSKZeJCu5vngmZ6jzzNAO7cX8FVKEsBuBKrgKg9oAE8gkCbLeUhEoEQKSUDZDLeWYRKIl8MEDRmHwfyBrBG6Amyu4+kDxxMoB3jhwgYu7TVAsVkFcWCs4CTBEoF4RctKeOxHIf8IXYpikHikAIf+MNUW94AGSSaoAoFIE3AlOyeWU+p2E5S9yfQZcQILVuQOwZdJNoS9Ls3wA5u2XZTIHECqeJ9kDpSaauRiNVcAY1QhdBzeLBli5WazpkSsBLV25uRaqWRyFawTQzRRIQYirJzq5atkBqLfouwqUxLBepthWb10vrWZY6UOAeyKCCtDV625mm9gmUC4Wc3VLJMMIE1BsA2FW9JraVlQB7n3c9oMKhCLEvIM1zBPZ25/umNQ1tVEC2G+fFCC8g398O2hNQuQlVu752DBfA+q0ptnqO5JFmeuIuo9DY7KjY71UxdJV4EntifPWorW++R/dC4t7V3DlIB5cHx2bc7eb3yvX//QNFp+bHDT/+Aw==);lineShape=1;strokeColor=default;sketch=1;hachureGap=4;jiggle=2;curveFitting=1;fontFamily=Architects Daughter;fontSource=https%3A%2F%2Ffonts.googleapis.com%2Fcss%3Ffamily%3DArchitects%2BDaughter;" vertex="1" parent="1">
          <mxGeometry x="1122.0160644982016" y="-22.096658648643142" width="7.787566286859071" height="7.775393693929213" as="geometry" />
        </mxCell>
        <mxCell id="Gz4Njnf0Q3PMrMddDzjn-16" value="" style="shape=stencil(lVjbThwxDP2afbWSOBf7mdL/QGIpq1IWLdDL39fTVaYTz8xBvC2DT2L7+JoD37w+3r0cDym8vl3O34+/Tvdvjwf+ckjp9Px4vJze7NeBbw9883C+HL9dzu/P99e/X+4myenXj/PP6YTfV1ygECZQCn+uH0Sp8L8vX6/yT6fnQT7mUZ5JK5LX8fzWKIDzE9U4yNdGWvblC6Xx/NL6CZvyQrkN8tn0SfvyMVLTAcBCQQCgUOQREEgyAJhKdQCkTLUBFyWKo4/sCAkAUPp5M4ApAdKSUkojy5SACZyojE7KkGSupKOPIkVgQDaLx/PnsN2WF6rFnY9ILoXYkQwZqJFk9E+jBvxjMdzEE1CBgxr7sDYLGAEsS0aNjMMGwlTMBGeyKQlslkw62pAzFZCZ0qi41AxUFQDUh2mp1ABtark50ly5u2EbwD4uWqQE3KqWzGNuNsy0Vk+cJBh6BtDxBimUgZe0dSfOACFFKll9GUNDEwwNVV9fTEmUbpNKwQME1BcDNAcopNhoVzAMgCqSzgVrBuR+5x6gJg/IKDSUQlwBkEpKLCuVMKCKN5qRDeqb7UQcSNEYVu1f59K8e8WYo0YN6m4GcKVy8jSoMwYo7gZzHAom7Sm8AAhKOeuWrjsE3E901aKnK1C8Su9nC0DBKbR2kyA3NV/KDBBwzrkebV8iBvgbrLhhlcTlXOnT1q6XHHMZ1w3ppXGZc5gHWeVcximUqgegeXLiVb3RAamkG176oBy7xms8oOFhK6uNfDSCfhph//YA6Z1vr8+tq19FXBc/eCueo6eOMBZkm0BgvM4KLHYZQcWP+5g9TwOKe0TqQ9sMYApIpeDXk2qNEa0zlhGjW4vCUiYrHgpTRGMcdwUWG1MEPEjwOZdDL5/bs2v1AW77RAU2tOTHdds3GKSQzd/RLUAVDoo24Ge3YsW+guxtEK6UNShvG0oZq0DudWRvA3KRxL1Nbm9Yjbj48wHLzMTJ6Z9A3NlOG9g7iIFHU/UGR9xNzEA3X6V5Fd8uYpaLo8lmA3rKmBQYbTYvwDLJfZRfRHZBk4Zv6lnh1FpXC5B1F5A52RtQFbKc/PkNzwzJU2BLICI5+jXXVjpB8yc11/8DMSKAavbyMCSouBHdshi93fTbF/IZyseVfAXyYbXFmAfg41lb6Y8W4rBhL4qf4IuKySfgz9C9t/A/Wj1Db3YLeTQFh9VKFeA70ucfLz+Stx//X0ofTk9P14fW5f/9y6p9ur7K8u1f);lineShape=1;strokeColor=#000000;sketch=1;hachureGap=4;jiggle=2;curveFitting=1;fontFamily=Architects Daughter;fontSource=https%3A%2F%2Ffonts.googleapis.com%2Fcss%3Ffamily%3DArchitects%2BDaughter;" vertex="1" parent="1">
          <mxGeometry x="599.9989700347081" y="-109.28979750997509" width="270.3465863727949" height="116.61571824342806" as="geometry" />
        </mxCell>
        <mxCell id="Gz4Njnf0Q3PMrMddDzjn-17" value="" style="shape=stencil(lVfZbhsxDPyafSUkURKl5zT9jwBxaqOuHTju9ffl1tA6pLNj5G2PGYnHkJQmfnjbPr1uphTezqfj983v3fN5O/GXKaXdYbs57c76NPHjxA8vx9Pm2+n48/B8eX99mpHz04/jr3mFPxdepS4zKYW/lw+SKJX/X75e8Pvd4R0+FsrNEgpVXifoDiEaQouUAYGFYrEEoRzXCblSTYbQAxXgQ1GLuyVEKsCkItQsoRWSvE6oTLHaKDFVWSdIIA6GUDJVsIM0nzhO1MM6oVVqlhAzCYhSTyTWh0QRpKEzZetCpAhc7pmYDT5QRvgyfl/xAeFVFs3jE8BrkovDM8K3W3xH8exUmotPA6JTfPfxb8jfPrZfFDEksmqPxRcKQECzv9HhoT0aT6uHOlrHar6Sw8sdPUSPR/ZnSs3hE7KHiavztyB70mgJA5+HQ2v4bJsKw66l+GrrRReo0H7XR+M9fLf2BNiyNP7B1yOs9+rjH7DexE8aXb9DfRZfj4L6VSf29VgwvjUXf4SPYfHvmuCKHO4kNsEZJ+CzeC0A16CFEiDMI8M5UIjxUBIrCZ2cqEfrYYNtzUilApJchcrNrGcQ1Ko7uFkvcHQX7eJOFgELNevgs8JTKUZ0wkmj8S+ETBm0inmSWq9bg8M+Rj9bG48jzMc7jOUWvIYVJC76WhCtDuBBpJA9PoBmFEY8FryGFGQt+F4kAg8rN6Wpugtw/eTsyUMmK3iJHo80pK3ZxWc5Qa7ky/UuWabJx5LzZyfFo/gvh88FrxkH+OIVrfgOSuCz1477eH243nFedvv95Yr0/r+/E+mny32KH/8B);lineShape=1;strokeColor=#000000;sketch=1;hachureGap=4;jiggle=2;curveFitting=1;fontFamily=Architects Daughter;fontSource=https%3A%2F%2Ffonts.googleapis.com%2Fcss%3Ffamily%3DArchitects%2BDaughter;" vertex="1" parent="1">
          <mxGeometry x="829.9964290513543" y="-49.17082468415106" width="62.34186050872192" height="69.16618650008256" as="geometry" />
        </mxCell>
        <mxCell id="Gz4Njnf0Q3PMrMddDzjn-21" value="Actor" style="shape=umlActor;verticalLabelPosition=bottom;verticalAlign=top;html=1;outlineConnect=0;sketch=1;hachureGap=4;jiggle=2;curveFitting=1;fontFamily=Architects Daughter;fontSource=https%3A%2F%2Ffonts.googleapis.com%2Fcss%3Ffamily%3DArchitects%2BDaughter;" vertex="1" parent="1">
          <mxGeometry x="720.17" y="360" width="30" height="60" as="geometry" />
        </mxCell>
        <mxCell id="Gz4Njnf0Q3PMrMddDzjn-34" value="" style="shape=stencil(fVbLcsIwDPyaXDW2ZflxpvQ/OlMomVJggL7+vsqEBOTC3hInG0ur3Y07Xpw2L4dVF9zpfNy/r7771/Om46cuhH63WR37s151vOx4sd4fV2/H/efudbw/vAxvDlcf+6/hCz8jrmTybkAF9zuuhEg8rjyPgG2/uwFUIfEGwEI1A0ClHA0g6kqAABYDSJFcBQCtuBhAziTlMaBIu0MplMEOmSlYlmoi4ccAqRQsS945coDXGKlYmmqhArZgT6mpicnLY0BwVLLtmkkAwDPlhldPDpTk9XEyAElUPdzBWZpioATE5CvFYOVa4eT0cWoGoStAfVrAZbAzQIcfwagTlWYHDx2U3eSXGRAnGu7LVcfUNO2xIVQIVksqFsTSVWrzHASq9UbN86jVtkAbg2FsE4OpkEnVko1J1bbIpLlNJg2GCJpITNXq+xo997VRSXILyEAbGo0X2mfAHJ/35apKsCUNAQ3kGuZovAUgj0aqDa0OWi5TstLIYcq2+xWRWO0lfR+Q+l9Iap+E3m+0HXUFJQBVm0kaCQz6LRQsoRoYAmbspfWO+j+ADYJMA5o7JodFlGwHHg4gaiBZRvGfR/KU0dfvR0BoKsSxqd/+bfXiet5Y99vteFy5fd6eT3RpPNvw8g8=);lineShape=1;strokeColor=#000000;sketch=1;hachureGap=4;jiggle=2;curveFitting=1;fontFamily=Architects Daughter;fontSource=https%3A%2F%2Ffonts.googleapis.com%2Fcss%3Ffamily%3DArchitects%2BDaughter;" vertex="1" parent="1">
          <mxGeometry x="276.4049691236987" y="394.0303843306633" width="10.213592456532108" height="10.24108838589162" as="geometry" />
        </mxCell>
      </root>
    </mxGraphModel>
  </diagram>
</mxfile>
